<?xml version="1.0" encoding="utf-8"?>
<!-- Generator: Adobe Illustrator 22.1.0, SVG Export Plug-In . SVG Version: 6.00 Build 0)  -->
<svg version="1.1" id="Layer_1" xmlns="http://www.w3.org/2000/svg" xmlns:xlink="http://www.w3.org/1999/xlink" x="0px" y="0px"
	 viewBox="0 0 51.7 51.7" style="enable-background:new 0 0 51.7 51.7;" xml:space="preserve">
<style type="text/css">
	.st0{fill:#FFFFFF;}
</style>
<path id="Path_77" class="st0" d="M51.7,6.8V45c0,0.1-0.1,0.3-0.1,0.4c-0.4,2.5-1.9,4.6-4.2,5.6c-0.8,0.3-1.6,0.6-2.5,0.8h-13V33.5
	h7.7l1.5-9.1H32v-6.2h9.1V9.1c-3,0-6,0-9,0c-5-0.1-9.2,3.9-9.3,8.9c0,0.1,0,0.2,0,0.3c0,1.8,0,3.6,0,5.4v0.6h-6v9.1h6v18.3H6.8
	c-0.1,0-0.2-0.1-0.2-0.1c-3.8-0.5-6.6-3.8-6.5-7.6C0,31.9,0,19.8,0,7.7C0,6.8,0.2,6,0.4,5.2c1-3.2,4-5.3,7.4-5.2
	c11.4,0,22.9,0,34.3,0c0.8,0,1.6,0,2.3,0c2.8,0.1,5.3,1.7,6.5,4.2C51.3,5.1,51.5,5.9,51.7,6.8z"/>
</svg>
