<svg id="Group_30" data-name="Group 30" xmlns="http://www.w3.org/2000/svg" width="51.723" height="51.737" viewBox="0 0 51.723 51.737">
  <path id="Path_78" data-name="Path 78" d="M2341.03,901.935H2367.7c.129.03.258.07.389.089a13.407,13.407,0,0,1,11.4,9.207,24.386,24.386,0,0,1,.734,3.23v26.668a4.226,4.226,0,0,0-.093.439,13.6,13.6,0,0,1-13.257,12.071q-12.523.075-25.047-.018a13.142,13.142,0,0,1-3.9-.671,13.515,13.515,0,0,1-9.416-13.022q-.015-12.12,0-24.24c0-.521.034-1.043.084-1.561a13.6,13.6,0,0,1,9.586-11.587C2339.109,902.272,2340.078,902.134,2341.03,901.935Zm30.1,25.887q0-3.762,0-7.525a9.085,9.085,0,0,0-9.267-9.269q-7.5-.007-15,0a9.086,9.086,0,0,0-9.27,9.266q-.006,7.5,0,15a9.087,9.087,0,0,0,9.267,9.271q7.5.008,15,0a9.086,9.086,0,0,0,9.27-9.267Q2371.137,931.559,2371.133,927.822Z" transform="translate(-2328.501 -901.935)" fill="#fff"/>
  <path id="Path_79" data-name="Path 79" d="M2475.986,1035.652q0,3.761,0,7.523a6.064,6.064,0,0,1-6.228,6.214q-7.523.006-15.045,0a6.062,6.062,0,0,1-6.2-6.19q-.007-7.548,0-15.1a6.061,6.061,0,0,1,6.2-6.188q7.548-.007,15.1,0a6.058,6.058,0,0,1,6.176,6.164C2475.991,1030.6,2475.986,1033.128,2475.986,1035.652Zm-13.767,7.575a7.576,7.576,0,1,0-7.547-7.6A7.592,7.592,0,0,0,2462.22,1043.227Zm8.7-14.75a1.514,1.514,0,1,0-1.493-1.521A1.531,1.531,0,0,0,2470.916,1028.478Z" transform="translate(-2436.385 -1009.792)" fill="#fff"/>
  <path id="Path_80" data-name="Path 80" d="M2548.633,1117.508a4.544,4.544,0,1,1-4.5-4.559A4.552,4.552,0,0,1,2548.633,1117.508Z" transform="translate(-2518.226 -1091.633)" fill="#fff"/>
</svg>
