<svg xmlns="http://www.w3.org/2000/svg" width="13.767" height="18.365" viewBox="0 0 13.767 18.365">
  <g id="Group_53" data-name="Group 53" transform="translate(-474.777 -569.909)">
    <path id="Path_103" data-name="Path 103" d="M481.554,588.274a32.146,32.146,0,0,1-2.941-3.251,23.065,23.065,0,0,1-2.778-4.292,10.115,10.115,0,0,1-.994-3.069,6.578,6.578,0,0,1,.95-4.445A6.734,6.734,0,0,1,480.608,570a6.894,6.894,0,0,1,7.489,9.263,17.485,17.485,0,0,1-2.263,4.254,33.436,33.436,0,0,1-3.885,4.591c-.058.058-.12.112-.18.168Zm.107-14.63a3.155,3.155,0,1,0,3.156,3.158A3.156,3.156,0,0,0,481.66,573.644Z" transform="translate(0)" fill="#fff"/>
  </g>
</svg>
