<?xml version="1.0" encoding="utf-8"?>
<!-- Generator: Adobe Illustrator 22.1.0, SVG Export Plug-In . SVG Version: 6.00 Build 0)  -->
<svg version="1.1" id="Layer_1" xmlns="http://www.w3.org/2000/svg" xmlns:xlink="http://www.w3.org/1999/xlink" x="0px" y="0px"
	 viewBox="0 0 41.3 25.9" style="enable-background:new 0 0 41.3 25.9;" xml:space="preserve">
<style type="text/css">
	.st0{fill:#FFFFFF;}
</style>
<g id="Group_32" transform="translate(-1460.647 -2057.347)">
	<path id="Path_82" class="st0" d="M1501.9,2057.3h-41.3v2.5c3.6,0.1,7.1,0.9,10.4,2.3c6.6-2.4,13.8-2.4,20.4,0
		c3.3-1.4,6.9-2.2,10.5-2.3"/>
	<path id="Path_83" class="st0" d="M1487.5,2075c0.6,1.3,1.9,2.1,3.3,2.2c0.3,0,0.5,0,0.8,0c0.3,0,0.6,0,0.9,0
		c1.4-0.1,2.6-1,3.3-2.2c0.9-1.7,1-3.8,0.1-5.6c-0.9-1.8-2.5-3.2-4.3-4.1c-1.8,0.9-3.2,2.3-4.1,4.1
		C1486.5,2071.2,1486.5,2073.3,1487.5,2075z"/>
	<path id="Path_84" class="st0" d="M1466.8,2075c0.6,1.3,1.9,2.1,3.3,2.2c0.3,0,0.5,0,0.8,0c0.3,0,0.6,0,0.9,0
		c1.4-0.1,2.6-1,3.3-2.2c0.9-1.7,1-3.8,0.1-5.6c-0.9-1.8-2.4-3.2-4.1-4.1c-1.9,0.9-3.4,2.3-4.3,4.1
		C1465.8,2071.2,1465.8,2073.3,1466.8,2075z"/>
	<path id="Path_85" class="st0" d="M1494.7,2063.9c1.6,1.1,2.8,2.5,3.7,4.2c1.3,2.6,1.2,5.7-0.2,8.2c-1.1,2.1-3.2,3.4-5.5,3.7
		c-0.4,0-0.8,0-1.1,0c-0.1,0-0.2,0-0.3,0c-0.2,0-0.5,0-0.8,0c-2.3-0.2-4.4-1.6-5.5-3.7c-1.4-2.6-1.5-5.6-0.2-8.2
		c0.8-1.6,2-3,3.4-4.1c-2.3-0.6-4.6-0.9-6.9-0.9h0h-0.1c-2.3,0-4.7,0.3-6.9,0.9c1.4,1.1,2.6,2.5,3.4,4.1c1.3,2.6,1.2,5.7-0.2,8.2
		c-1.1,2.1-3.2,3.4-5.5,3.7c-0.4,0-0.8,0-1.1,0c-0.3,0-0.7,0-1,0c-2.3-0.2-4.4-1.6-5.5-3.7c-1.4-2.6-1.5-5.6-0.2-8.2
		c0.8-1.7,2.1-3.2,3.7-4.2c-2.3-0.7-4.7-1.1-7.1-1.2v20.6h41.3v-20.6C1499.5,2062.8,1497,2063.2,1494.7,2063.9z"/>
	<path id="Path_86" d="M1501.9,2062.7L1501.9,2062.7"/>
</g>
</svg>
