<?xml version="1.0" encoding="utf-8"?>
<!-- Generator: Adobe Illustrator 22.1.0, SVG Export Plug-In . SVG Version: 6.00 Build 0)  -->
<svg version="1.1" id="Layer_1" xmlns="http://www.w3.org/2000/svg" xmlns:xlink="http://www.w3.org/1999/xlink" x="0px" y="0px"
	 viewBox="0 0 51.7 51.7" style="enable-background:new 0 0 51.7 51.7;" xml:space="preserve">
<style type="text/css">
	.st0{fill:#FFFFFF;}
</style>
<path id="Path_81" class="st0" d="M43,51.7H8.7c-0.1,0-0.2-0.1-0.2-0.1C3.6,51,0,46.9,0,42C0,31.2,0,20.5,0,9.7c0-1.4,0.2-2.7,0.8-4
	C2.4,2.2,6-0.1,9.9,0c8.5,0,17,0,25.5,0c2.3,0,4.7,0,7,0c4.3,0.1,8.1,3.1,9.1,7.3c0.1,0.4,0.2,0.9,0.3,1.3V43c0,0.1-0.1,0.2-0.1,0.3
	c-0.6,3.9-3.4,7.1-7.3,8.1C43.9,51.6,43.5,51.6,43,51.7z M42.1,13.6c-1.1,0.4-2.2,0.9-3.3,1.3c-0.6,0.3-1.4,0.2-1.9-0.3
	c-2.1-1.8-5.1-2.2-7.5-0.9c-2.5,1.1-4.1,3.7-4,6.5c0,0.5,0.1,1,0.1,1.5c-5.7-0.3-10.9-3-14.6-7.4c-0.9,1.5-1.2,3.3-0.8,5.1
	c0.3,1.7,1.3,3.3,2.8,4.3l-0.1,0.2l-3.1-0.8c-0.1,1.2,0.2,2.3,0.8,3.3c1,1.8,2.7,3.1,4.7,3.5l0,0.2h-2.8c1,2.8,3.6,4.8,6.6,4.9
	c-2.9,2.3-6.6,3.3-10.3,2.9C8.8,37.9,8.9,37.9,9,38c1.6,1,3.3,1.7,5.1,2.2c2.7,0.7,5.6,0.9,8.4,0.5c3.6-0.4,7-1.9,9.7-4.2
	c4.8-4,7.6-10,7.4-16.3c0-0.2,0.1-0.5,0.3-0.6c0.5-0.5,1-0.8,1.5-1.3c0.6-0.6,1.1-1.3,1.7-2l-3.7,1l-0.1-0.2
	C40.6,16.4,41.6,15.1,42.1,13.6L42.1,13.6z"/>
</svg>
