<?xml version="1.0" encoding="utf-8"?>
<!-- Generator: Adobe Illustrator 22.1.0, SVG Export Plug-In . SVG Version: 6.00 Build 0)  -->
<svg version="1.1" id="Layer_1" xmlns="http://www.w3.org/2000/svg" xmlns:xlink="http://www.w3.org/1999/xlink" x="0px" y="0px"
	 viewBox="0 0 72 50.9" style="enable-background:new 0 0 72 50.9;" xml:space="preserve">
<style type="text/css">
	.st0{fill:#FFFFFF;}
</style>
<g id="Group_39" transform="translate(-864.77 -472.386)">
	<path id="Path_87" class="st0" d="M936.8,487.5c-0.2,0.1-0.4,0.3-0.6,0.5c-2.6,2.6-5.1,5.1-7.7,7.7c-7.8-7.5-17-11.5-27.7-11.5
		c-10.4-0.1-20.3,4-27.6,11.3l-8.3-8.3c0.5-0.5,1.1-1.1,1.8-1.7c6.7-6.1,14.9-10.3,23.8-12.1c5.8-1.2,11.7-1.4,17.5-0.6
		c10.1,1.4,19.5,5.8,27,12.7c0.6,0.6,1.3,1.2,1.9,1.8L936.8,487.5z"/>
	<path id="Path_88" class="st0" d="M886,508.6l-8.3-8.3c11.9-12.4,33.2-13,45.9-0.1l-8.3,8.3C907.2,500.6,894.1,500.6,886,508.6
		L886,508.6z"/>
	<path id="Path_89" class="st0" d="M910.1,514l-9.3,9.3l-9.3-9.3C895.4,509.3,904.5,508.3,910.1,514z"/>
</g>
</svg>
