<svg id="Group_231" data-name="Group 231" xmlns="http://www.w3.org/2000/svg" width="42.377" height="42.377" viewBox="0 0 42.377 42.377">
  <g id="Group_104" data-name="Group 104" transform="translate(11.151 8.922)">
    <path id="Union_9" data-name="Union 9" d="M-19111.531,14070.659c-1.611,0-3.229.009-4.842,0a4.681,4.681,0,0,1-4.641-3.647,5.976,5.976,0,0,1,.74-4.357,6.545,6.545,0,0,1,5.676-3.518c2.137-.086,4.281-.076,6.412.024a6.738,6.738,0,0,1,6.08,5.14,5.238,5.238,0,0,1-.182,3.5,4.612,4.612,0,0,1-4.406,2.851c-.619.009-1.24.012-1.859.012C-19109.547,14070.666-19110.539,14070.659-19111.531,14070.659Z" transform="translate(19121.15 -14045.645)" fill="#000081" stroke="rgba(0,0,0,0)" stroke-miterlimit="10" stroke-width="1"/>
    <path id="Union_10" data-name="Union 10" d="M-19121.154,14064.836a5.8,5.8,0,0,1,5.74-5.758,5.778,5.778,0,0,1,5.811,5.811,5.8,5.8,0,0,1-5.758,5.735A5.8,5.8,0,0,1-19121.154,14064.836Z" transform="translate(19125.008 -14059.078)" fill="#000081" stroke="rgba(0,0,0,0)" stroke-miterlimit="10" stroke-width="1"/>
  </g>
  <g id="Path_148" data-name="Path 148" fill="none">
    <path d="M21.189,0A21.189,21.189,0,1,1,0,21.189,21.189,21.189,0,0,1,21.189,0Z" stroke="none"/>
    <path d="M 21.18871879577637 2.999996185302734 C 16.3303394317627 2.999996185302734 11.76274871826172 4.891956329345703 8.327350616455078 8.327346801757812 C 4.891960144042969 11.76274681091309 3 16.3303279876709 3 21.18870735168457 C 3 26.04708671569824 4.891960144042969 30.61466598510742 8.327350616455078 34.05006790161133 C 11.76274871826172 37.48545837402344 16.3303394317627 39.37741851806641 21.18871879577637 39.37741851806641 C 26.04709815979004 39.37741851806641 30.61468887329102 37.48545837402344 34.05008697509766 34.05006790161133 C 37.48547744750977 30.61467742919922 39.37743759155273 26.04708671569824 39.37743759155273 21.18870735168457 C 39.37743759155273 16.3303279876709 37.48547744750977 11.76273727416992 34.05008697509766 8.327346801757812 C 30.61468887329102 4.891956329345703 26.04709815979004 2.999996185302734 21.18871879577637 2.999996185302734 M 21.18871879577637 -3.814697265625e-06 C 32.89093017578125 -3.814697265625e-06 42.37743759155273 9.486507415771484 42.37743759155273 21.18870735168457 C 42.37743759155273 32.89090728759766 32.89093017578125 42.37741851806641 21.18871879577637 42.37741851806641 C 9.486518859863281 42.37741851806641 0 32.89090728759766 0 21.18870735168457 C 0 9.486507415771484 9.486518859863281 -3.814697265625e-06 21.18871879577637 -3.814697265625e-06 Z" stroke="none" fill="#000081"/>
  </g>
</svg>
