<svg xmlns="http://www.w3.org/2000/svg" width="35.304" height="35.315" viewBox="0 0 35.304 35.315">
  <g id="Group_87" data-name="Group 87" transform="translate(-756.152 -336.016)">
    <path id="Path_122" data-name="Path 122" d="M791.455,352.639v2.069c-.028.248-.057.5-.084.744a17.712,17.712,0,0,1-14.532,15.6c-.664.118-1.338.184-2.007.275h-2.069c-.591-.074-1.185-.128-1.772-.226A17.7,17.7,0,0,1,756.238,351.9a16.845,16.845,0,0,1,4.311-9.868,17.289,17.289,0,0,1,12.507-5.991,16.79,16.79,0,0,1,9.739,2.461,17.4,17.4,0,0,1,8.386,12.135C791.3,351.3,791.365,351.97,791.455,352.639ZM773.8,338.59a15.084,15.084,0,1,0,15.082,15.1A15.117,15.117,0,0,0,773.8,338.59Z" fill="#6e6e6e"/>
    <path id="Path_123" data-name="Path 123" d="M938.482,445.2h.418c1.712,0,3.424,0,5.136,0a1.242,1.242,0,0,1,1.205.765,1.133,1.133,0,0,1-.2,1.342,2.708,2.708,0,0,1-.822.443.883.883,0,0,1-.341.019q-3.241,0-6.481,0a1.3,1.3,0,0,1-1.478-1.484q0-4.361,0-8.722a1.286,1.286,0,1,1,2.565,0q.005,3.344,0,6.688C938.482,444.555,938.482,444.852,938.482,445.2Z" transform="translate(-164.261 -91.529)" fill="#6e6e6e"/>
  </g>
</svg>
