<svg xmlns="http://www.w3.org/2000/svg" width="38" height="38" viewBox="0 0 38 38">
  <g id="Group_105" data-name="Group 105" transform="translate(-480 -521.76)">
    <g id="Group_104" data-name="Group 104" transform="translate(-333.428 167.322)">
      <path id="Path_130" data-name="Path 130" d="M832.052,564.372c-1.446,0-2.893.007-4.339,0a4.191,4.191,0,0,1-4.162-3.271,5.358,5.358,0,0,1,.661-3.907,5.865,5.865,0,0,1,5.09-3.152c1.914-.076,3.837-.069,5.751.02a6.041,6.041,0,0,1,5.45,4.61,4.692,4.692,0,0,1-.162,3.141,4.13,4.13,0,0,1-3.951,2.557C834.945,564.391,833.5,564.372,832.052,564.372Zm0-1.733q2.146,0,4.291,0a2.962,2.962,0,0,0,.493-.027,2.516,2.516,0,0,0,2.1-2.942,4.409,4.409,0,0,0-4.447-3.922q-2.428,0-4.857,0a4.065,4.065,0,0,0-.518.02,4.4,4.4,0,0,0-3.92,3.857,2.533,2.533,0,0,0,2.588,3.025C829.206,562.607,830.629,562.639,832.052,562.639Z" transform="translate(0 -179.503)" fill="#fff"/>
      <path id="Path_131" data-name="Path 131" d="M883.6,372.793a5.177,5.177,0,1,1,5.164-5.143A5.2,5.2,0,0,1,883.6,372.793Zm-.027-8.625a3.447,3.447,0,1,0,3.461,3.455A3.439,3.439,0,0,0,883.576,364.168Z" transform="translate(-51.528)" fill="#fff"/>
    </g>
    <g id="Ellipse_94" data-name="Ellipse 94" transform="translate(480 521.76)" fill="none" stroke="#fff" stroke-width="2">
      <circle cx="19" cy="19" r="19" stroke="none"/>
      <circle cx="19" cy="19" r="18" fill="none"/>
    </g>
  </g>
</svg>
