<?xml version="1.0" encoding="utf-8"?>
<!-- Generator: Adobe Illustrator 22.1.0, SVG Export Plug-In . SVG Version: 6.00 Build 0)  -->
<svg version="1.1" id="Layer_1" xmlns="http://www.w3.org/2000/svg" xmlns:xlink="http://www.w3.org/1999/xlink" x="0px" y="0px"
	 viewBox="0 0 659.3 347.9" style="enable-background:new 0 0 659.3 347.9;" xml:space="preserve">
<style type="text/css">
	.st0{fill:#16255B;}
	.st1{fill:none;}
	.st2{fill:#2857F7;stroke:#000000;stroke-miterlimit:10;}
	.st3{fill:#FBD03A;stroke:#000000;stroke-miterlimit:10;}
	.st4{fill:none;stroke:#000000;stroke-miterlimit:10;}
	.st5{fill:none;stroke:#000000;}
	.st6{fill:#FFFFFF;}
	.st7{font-family:'YuGothic-Medium';}
	.st8{font-size:12px;}
	.st9{fill:none;stroke:#16255B;}
</style>
<g id="Group_109" transform="translate(-480.5 -1634.237)">
	<g id="Group_19" transform="translate(-535 834.815)">
		<g id="Group_17" transform="translate(1016 807.094)">
			<g id="Group_16">
				<path id="Path_20" class="st0" d="M122.7,154l-2.9-7.6l-6.3-9.7l10.9-16l5.9-6.7l-2.1-8.4l-6.3,2.9l-17.3-8.4l5.1-5.5l-2.1-4.2
					H95.7l4.6-9.1L80.1,44.7l-0.8-0.4l-19.5,19v6.9L47.1,85.8l3.8,11.4l5.9,1.1l3.2-4.4l5.5,13.7L73,96.5l-0.4-7.8l-2.5-8.6
					l8.2-12.4l5.7,2.1l-4.2,9.9v9.5l13.7,2.5l-9.3,2.7l-7.6,15.8l-8.2-1.7l-6.9,1.7l-3.6-4.4l-3.6-2.5l-2.1,1.5l-14.3,17.7
					c0,0-1.3-7.6-1.3-8.2v-13.7L33,96.3l-4.4,1.1l-1.3,2.3l4,4l-2.5,20c0,0,1.7,4.2,2.7,4.6c2,1.2,4,2.6,5.9,4l-2.9,2.1l-2.3,2.3
					h-4.8l-3.2,0.8l1.5,18.7l12.8-2.7l1.3-8.6l8-1.7L52,139l6.8,0.2l12.7,13.5c0,0,2.1-4.6,1.9-5.3s-10.7-12.2-10.7-12.2h4l7.6,3.4
					l4.4,12.8l12.4-8.2l2.3-10.5l2.1,9.5l-5.7,9.3l-2.5,4.8h15.6l2.9,1.1l-2.9,12.8l-2.3,5.9l20.4,23.8l8.8,1.3l16.4-12.2
					l-22.7-28.6L122.7,154z"/>
				<path id="Path_21" class="st0" d="M352.4,44.9l-21.9,3.6L297,31.9l-1.3,9.5L273,38.6l-6.5-10.3h-19.4l-6.9-6.3l-6.7,6.7
					l3.2-19.4l-18.9-2.7l-37.1,25.1L159.3,54l-12-2.6l-39.8,24.9L96.2,61.8l15.6,4.6V55l-24-16l-8,5.1l0.3,0.6l20.3,36.7l-4.6,9.1
					h11.8l2.1,4.2l-5.1,5.5l17.3,8.4l6.3-2.9l2.1,8.4l-5.9,6.7l-10.9,16l6.3,9.7l2.9,7.6l0.8,6.3l22.7,28.6h26.1l9.3,23.2l21.5-27.8
					l10.1,12.6l3.4-0.8l2.3,4.8l-1.5,12.6l4.4,3.4v4l2.3,2.5l4.6,2.9l1.7-4.2l-2.3-5.1l-5.9-7.4l1.9-8l7.6,9.3l7.6-10.1l-7.4-12.4
					h15.4l16.4-17.3l-7.8-15l5.1-6.3l6.3,9.3l6.5,1.3l-1.3-10.7l12.6-7.8l9.7-27.8l-9.7-6.3l14.5-13.1l20.6,1.3l8.2-11.2l1.1,1.1
					l-12,16.6l9.3,19.6c0,0,8.2-25.9,16-31c5.5-3.4,11.3-6.5,17.3-9.1l1.9-0.8v-8.4l16.4,2.9l1.7-12L352.4,44.9z"/>
				<path id="Path_22" class="st0" d="M56.6,153.1l-32.4,10.1l-12.4,41.3l20,16.8l14.7-5.9l10.1,4v15l9.1,13.9l-2.3,25.3
					c0,0,9.7,10.7,10.3,19.4l20.4-8.2c0,0,9.3-22.5,18.3-29.1l1.1-24.2l17.3-17.9v-8.6l-12.2,2.1l-16.6-29.5l-1.3-1.5l2.8-8.2
					l-24.5-1.4l-2.7,3.6L56.6,153.1z"/>
				<path id="Path_23" class="st0" d="M190.6,213.7l-2.6-4.1l-3.7,3.6l2,6h4.3L190.6,213.7z"/>
				<path id="Path_24" class="st0" d="M217.3,215.8l-4.4,3.7l2.7,7.6l14.4,12.6l4-8.6l-12.1-7.4l-3-4.9L217.3,215.8z"/>
				<path id="Path_25" class="st0" d="M252.9,213l5.7,4.8l-2.5,3.9l0.2,4.6c0,0-4,4.1-4.1,4.3s-3,4-3.7,4s-4.8-0.6-5.3-0.6
					c-0.9-0.4-1.7-1-2.5-1.6c0,0-1.5-2.5-1.7-2.9s-1.7-3.2-1.7-3.2l3.2-4.5l5.2,0.8L252.9,213z"/>
				<path id="Path_26" class="st0" d="M247.9,243.7l-1.2-5.3c0,0-7.9-2.7-8.1-2.7s-6.2,4.6-6.2,4.6s-1.8,2.7-0.8,2.9
					s10.7,2.9,10.7,2.9L247.9,243.7z"/>
				<path id="Path_27" class="st0" d="M264.1,228.4l2.7-2.5l-3.8-1.3l-4.4,2.9l-2.8,3.3c0.1,1.6,0.3,3.1,0.6,4.7
					c0.2,0.1,4.3,1.8,4.9,1.2c1.3-1.2,2.5-2.5,3.6-3.8C264.9,232.7,264.1,228.4,264.1,228.4z"/>
				<path id="Path_28" class="st0" d="M270.4,208.6l-7.1,1.8c0,0,2,6.9,2.2,6.9s5.7-2.5,5.7-2.5L270.4,208.6z"/>
				<path id="Path_29" class="st0" d="M264.7,194.6c-0.4,0-8,2-8,2s-1.2,2.5,0,2.9c2.1,0.8,4.1,1.8,6.1,2.9c1.6,1,3.3,1.8,5.1,2.6
					L264.7,194.6z"/>
				<path id="Path_30" class="st0" d="M263.3,179.1c-0.3-0.1-5.8,4.6-5.8,4.6s-1.1,4.4-0.8,4.6s7.4,0,7.4,0L263.3,179.1z"/>
				<path id="Path_31" class="st0" d="M300.8,113l-2.9-2.7c0,0-0.4,1.4-0.5,2s0.7,7.8,0.7,8.4s0.2,8.4,0.2,8.4s-0.2,2.2,0.8,1.7
					s4-0.5,4.1-1.8c-0.1-2.2-0.4-4.3-0.7-6.4c-0.1-0.8,0.3-5.6,0.2-6.1C302.1,115.3,301.5,114.2,300.8,113z"/>
				<path id="Path_32" class="st0" d="M302.5,136.1h-4.7c-1,0.5-2,1.1-2.8,1.8c-0.4,0.6-0.9,2.4-0.5,3.1c1.3,1.1,2.6,2.2,4,3.2
					c0,0,3.7,0.1,4.8-0.8s3.6-2.7,3.1-3.6S302.5,136.1,302.5,136.1z"/>
				<path id="Path_33" class="st0" d="M294.2,143.7c0,0,3.6,1.9,3.6,2.2s-0.4,2.7-0.5,4.3c0,1.9,0.2,3.9,0.5,5.8
					c-0.1,1.6-0.3,3.2-0.5,4.7l-7.4,2.7c-0.6,0.8-1.2,1.6-2,2.2c-0.8,0.7-1.7,1.2-2.6,1.5c-1.4,0.3-1.7-0.3-3.4,0.7s-1.3,2.1-2.8,2
					s-3.4,0-3.9-0.9s-1.5-4.9-0.8-5.3s6.4-5.4,6.4-5.4l8-3.4c0,0,6.3-3.9,6.2-4.2S294.2,143.7,294.2,143.7z"/>
				<path id="Path_34" class="st0" d="M299.1,232.5l-9-6l-11.2,0.7l2.8,8.6l9.7,2.7c0,0,0.8,5.6,1.3,5.6s4.5-1.8,4.5-1.8
					L299.1,232.5z"/>
				<path id="Path_35" class="st0" d="M315.4,246.1l-9.4-11.4l-6.9-2.2l-2,9.8l9.8,8.1l5.6,4.2l4.1-1l-8-7.5L315.4,246.1z"/>
				<path id="Path_36" class="st0" d="M299.8,247.5l-4.4,15.2l-8.7-1.4l1.3-12.4l-8.1-0.3l-32,19.9l1.1,23.9l32.6-2.9l13.9,12.6H315
					l5.8-23L299.8,247.5z"/>
				<path id="Path_37" class="st0" d="M308.8,305.7l-7.5,1.1l2.1,14.5l5.4-2.8l-1.7-5.5l2.2-2.9L308.8,305.7z"/>
				<path id="Path_38" class="st0" d="M357.5,296.4l-3.5,2.1l-0.8,7.2l4.3,1.8l4.3-5.4L357.5,296.4z"/>
				<path id="Path_39" class="st0" d="M354.2,308.5l-3.6-2.8L340.2,319l4.1,3.6l-2.1,2.7c0,0,3.1,0.3,3.4,0s11.9-15.2,11.9-15.2
					L354.2,308.5z"/>
				<path id="Path_40" class="st0" d="M130.2,248.4l4.1,3.8l-6,20l-6.1,1.4c0,0-3.8-2.3-3.8-2.7c0.9-1.8,1.9-3.5,3.1-5.2l0.6-5.7
					l-0.1-4.3l4.9-1.6L130.2,248.4z"/>
				<path id="Path_41" class="st0" d="M10.4,65.4c0,0,6.6,5.5,6,6s-6,6.3-6,6.3L0,76.8V71L10.4,65.4z"/>
				<path id="Path_42" class="st0" d="M437.7,49.1l-34.8-10.4l-15.7,23l6.5,32.6l22.7-9l31.7,5.9l19.9,35.1v32l20.2,21.9v-15.4
					l12.6,25.8l46.3,22.2l-3.7,23.3l19.7,18.8v7l-3.1,27.5l-5.9,31.7l4.8,19.1h10.4l21.6-51.4l15.4-19.4l10.1-2l12.1-27.8
					l-30.9-13.3l-10.9-13.9l-32.3-5.9l-35.7-19.9l-1.7-13.8l20.8-0.8l7,12.4l2-19.9l34-43.9l11.5-5.5l-18-25.8l-9.3,6.2l-5.6-14.1
					L546,88.1l0.3,25.5l-30-21.3l23.9-21.1l-1.4-25.5l-30.9,14.7l-7.7-2.3l-13.1-0.4l-30.7-12.6L437.7,49.1z"/>
				<path id="Path_43" class="st0" d="M477.7,22.8v2.9l-3.4,4.2l-1.8,1.9l1.1,7.6l-3.5,2.3l-5.7-0.7l-3.4-6.8l0.5-7.4l3.7-5.8
					L477.7,22.8z"/>
				<path id="Path_44" class="st0" d="M482.9,25l-6.4,7.3l4.1,7.5l1.7,2.7l-2.6,3.7l1.4,3.8l7.8,2.5l11.1,0.7l5.4-1.8l1.5-5.2
					l-8-2.8l0.3-11.9l-15.4-3.9l-0.6-1.7L482.9,25z"/>
				<path id="Path_45" class="st0" d="M509.1,24l-5.1,9.3l4.3,7.4l7.5-4.1l-2-6.2L509.1,24z"/>
				<path id="Path_46" class="st0" d="M541,27.2c-0.9,0.6-3.4,2-4.3,1.8s-3.7-5.7-3.7-5.7s-5.7,8-5.4,9.4s4.6,11.7,4.6,11.7
					l12.7,0.8l9.7,9.5v13.4l-7.6,2.4l0.3,4.9l11.9-0.8l9.8,10.8l6.8-10l-8.8-12l8.8,6l1.1-10.1l-10.6-6.1l-0.4-6.8l-13.6-12
					l-6.4,0.4l-2.7-1.2l-0.5-4.7L541,27.2z"/>
				<path id="Path_47" class="st0" d="M567.8,7l-16.4,18l32,14.1L594.1,80l12.4-2.8l15.4-16.8l21.5-9.8l5.1-34.7l9.4-12.4h-28.1
					L606.5,0l-16.4,5.8l-8,2L567.8,7z"/>
				<line id="Line_7" class="st1" x1="553.2" y1="205.9" x2="547.2" y2="212.8"/>
			</g>
		</g>
		<g id="Group_18" transform="translate(1016 799.935)">
			<path id="Path_48" class="st2" d="M122.7,154l-2.9-7.6l-6.3-9.7l10.9-16l5.9-6.7l-2.1-8.4l-6.3,2.9l-17.3-8.4l5.1-5.5l-2.1-4.2
				H95.7l4.6-9.1L80.1,44.7l-0.8-0.4l-19.5,19v6.9L47.1,85.8l3.8,11.4l5.9,1.1l3.2-4.4l5.5,13.7L73,96.5l-0.4-7.8l-2.5-8.6l8.2-12.4
				l5.7,2.1l-4.2,9.9v9.5l13.7,2.5l-9.3,2.7l-7.6,15.8l-8.2-1.7l-6.9,1.7l-3.6-4.4l-3.6-2.5l-2.1,1.5l-14.3,17.7
				c0,0-1.3-7.6-1.3-8.2v-13.7L33,96.3l-4.4,1.1l-1.3,2.3l4,4l-2.5,20c0,0,1.7,4.2,2.7,4.6c2,1.2,4,2.6,5.9,4l-2.9,2.1l-2.3,2.3
				h-4.8l-3.2,0.8l1.5,18.7l12.8-2.7l1.3-8.6l8-1.7L52,139l6.8,0.2l12.7,13.5c0,0,2.1-4.6,1.9-5.3s-10.7-12.2-10.7-12.2h4l7.6,3.4
				l4.4,12.8l12.4-8.2l2.3-10.5l2.1,9.5l-5.7,9.3l-2.5,4.8h15.6l2.9,1.1l-2.9,12.8l-2.3,5.9l20.4,23.8l8.8,1.3l16.4-12.2l-22.7-28.6
				L122.7,154z"/>
			<path id="Path_49" class="st3" d="M352.4,44.9l-21.9,3.6L297,31.9l-1.3,9.5L273,38.6l-6.5-10.3h-19.4l-6.9-6.3l-6.7,6.7l3.2-19.4
				l-18.9-2.7l-37.1,25.1L159.3,54l-12-2.6l-39.8,24.9L96.2,61.8l15.6,4.6V55l-24-16l-8,5.1l0.3,0.6l20.3,36.7l-4.6,9.1h11.8
				l2.1,4.2l-5.1,5.5l17.3,8.4l6.3-2.9l2.1,8.4l-5.9,6.7l-10.9,16l6.3,9.7l2.9,7.6l0.8,6.3l22.7,28.6h26.1l9.3,23.2l21.5-27.8
				l10.1,12.6l3.4-0.8l2.3,4.8l-1.5,12.6l4.4,3.4v4l2.3,2.5l4.6,2.9l1.7-4.2l-2.3-5.1l-5.9-7.4l1.9-8l7.6,9.3l7.6-10.1l-7.4-12.4
				h15.4l16.4-17.3l-7.8-15l5.1-6.3l6.3,9.3l6.5,1.3l-1.3-10.7l12.6-7.8l9.7-27.8l-9.7-6.3l14.5-13.1l20.6,1.3l8.2-11.2l1.1,1.1
				l-12,16.6l9.3,19.6c0,0,8.2-25.9,16-31c5.5-3.4,11.3-6.5,17.3-9.1l1.9-0.8v-8.4l16.4,2.9l1.7-12L352.4,44.9z"/>
			<path id="Path_50" class="st2" d="M56.6,153.1l-32.4,10.1l-12.4,41.3l20,16.8l14.7-5.9l10.1,4v15l9.1,13.9l-2.3,25.3
				c0,0,9.7,10.7,10.3,19.4l20.4-8.2c0,0,9.3-22.5,18.3-29.1l1.1-24.2l17.3-17.9v-8.6l-12.2,2.1l-16.6-29.5l-1.3-1.5l2.8-8.2
				l-24.5-1.4l-2.7,3.6L56.6,153.1z"/>
			<path id="Path_51" class="st3" d="M190.6,213.7l-2.6-4.1l-3.7,3.6l2,6h4.3L190.6,213.7z"/>
			<path id="Path_52" class="st3" d="M217.3,215.8l-4.4,3.7l2.7,7.6l14.4,12.6l4-8.6l-12.1-7.4l-3-4.9L217.3,215.8z"/>
			<path id="Path_53" class="st3" d="M252.9,213l5.7,4.8l-2.5,3.9l0.2,4.6c0,0-4,4.1-4.1,4.3s-3,4-3.7,4s-4.8-0.6-5.3-0.6
				c-0.9-0.4-1.7-1-2.5-1.6c0,0-1.5-2.5-1.7-2.9s-1.7-3.2-1.7-3.2l3.2-4.5l5.2,0.8L252.9,213z"/>
			<path id="Path_54" class="st3" d="M247.9,243.7l-1.2-5.3c0,0-7.9-2.7-8.1-2.7s-6.2,4.6-6.2,4.6s-1.8,2.7-0.8,2.9
				s10.7,2.9,10.7,2.9L247.9,243.7z"/>
			<path id="Path_55" class="st3" d="M264.1,228.4l2.7-2.5l-3.8-1.3l-4.4,2.9l-2.8,3.3c0.1,1.6,0.3,3.1,0.6,4.7
				c0.2,0.1,4.3,1.8,4.9,1.2c1.3-1.2,2.5-2.5,3.6-3.8C264.9,232.7,264.1,228.4,264.1,228.4z"/>
			<path id="Path_56" class="st3" d="M270.4,208.6l-7.1,1.8c0,0,2,6.9,2.2,6.9s5.7-2.5,5.7-2.5L270.4,208.6z"/>
			<path id="Path_57" class="st3" d="M264.7,194.6c-0.4,0-8,2-8,2s-1.2,2.5,0,2.9c2.1,0.8,4.1,1.8,6.1,2.9c1.6,1,3.3,1.8,5.1,2.6
				L264.7,194.6z"/>
			<path id="Path_58" class="st3" d="M263.3,179.1c-0.3-0.1-5.8,4.6-5.8,4.6s-1.1,4.4-0.8,4.6s7.4,0,7.4,0L263.3,179.1z"/>
			<path id="Path_59" class="st3" d="M300.8,113l-2.9-2.7c0,0-0.4,1.4-0.5,2s0.7,7.8,0.7,8.4s0.2,8.4,0.2,8.4s-0.2,2.2,0.8,1.7
				s4-0.5,4.1-1.8c-0.1-2.2-0.4-4.3-0.7-6.4c-0.1-0.8,0.3-5.6,0.2-6.1C302.1,115.3,301.5,114.2,300.8,113z"/>
			<path id="Path_60" class="st3" d="M302.5,136.1h-4.7c-1,0.5-2,1.1-2.8,1.8c-0.4,0.6-0.9,2.4-0.5,3.1c1.3,1.1,2.6,2.2,4,3.2
				c0,0,3.7,0.1,4.8-0.8s3.6-2.7,3.1-3.6S302.5,136.1,302.5,136.1z"/>
			<path id="Path_61" class="st3" d="M294.2,143.7c0,0,3.6,1.9,3.6,2.2s-0.4,2.7-0.5,4.3c0,1.9,0.2,3.9,0.5,5.8
				c-0.1,1.6-0.3,3.2-0.5,4.7l-7.4,2.7c-0.6,0.8-1.2,1.6-2,2.2c-0.8,0.7-1.7,1.2-2.6,1.5c-1.4,0.3-1.7-0.3-3.4,0.7s-1.3,2.1-2.8,2
				s-3.4,0-3.9-0.9s-1.5-4.9-0.8-5.3s6.4-5.4,6.4-5.4l8-3.4c0,0,6.3-3.9,6.2-4.2S294.2,143.7,294.2,143.7z"/>
			<path id="Path_62" class="st3" d="M299.1,232.5l-9-6l-11.2,0.7l2.8,8.6l9.7,2.7c0,0,0.8,5.6,1.3,5.6s4.5-1.8,4.5-1.8L299.1,232.5
				z"/>
			<path id="Path_63" class="st2" d="M315.4,246.1l-9.4-11.4l-6.9-2.2l-2,9.8l9.8,8.1l5.6,4.2l4.1-1l-8-7.5L315.4,246.1z"/>
			<path id="Path_64" class="st2" d="M299.8,247.5l-4.4,15.2l-8.7-1.4l1.3-12.4l-8.1-0.3l-32,19.9l1.1,23.9l32.6-2.9l13.9,12.6H315
				l5.8-23L299.8,247.5z"/>
			<path id="Path_65" class="st4" d="M308.8,305.7l-7.5,1.1l2.1,14.5l5.4-2.8l-1.7-5.5l2.2-2.9L308.8,305.7z"/>
			<path id="Path_66" class="st2" d="M357.5,296.4l-3.5,2.1l-0.8,7.2l4.3,1.8l4.3-5.4L357.5,296.4z"/>
			<path id="Path_67" class="st2" d="M354.2,308.5l-3.6-2.8L340.2,319l4.1,3.6l-2.1,2.7c0,0,3.1,0.3,3.4,0s11.9-15.2,11.9-15.2
				L354.2,308.5z"/>
			<path id="Path_68" class="st2" d="M130.2,248.4l4.1,3.8l-6,20l-6.1,1.4c0,0-3.8-2.3-3.8-2.7c0.9-1.8,1.9-3.5,3.1-5.2l0.6-5.7
				l-0.1-4.3l4.9-1.6L130.2,248.4z"/>
			<path id="Path_69" class="st2" d="M10.4,65.4c0,0,6.6,5.5,6,6s-6,6.3-6,6.3L0,76.8V71L10.4,65.4z"/>
			<path id="Path_70" class="st2" d="M437.7,49.1l-34.8-10.4l-15.7,23l6.5,32.6l22.7-9l31.7,5.9l19.9,35.1v32l20.2,21.9v-15.4
				l12.6,25.8l46.3,22.2l-3.7,23.3l19.7,18.8v7l-3.1,27.5l-5.9,31.7l4.8,19.1h10.4l21.6-51.4l15.4-19.4l10.1-2l12.1-27.8l-30.9-13.3
				l-10.9-13.9l-32.3-5.9l-35.7-19.9l-1.7-13.8l20.8-0.8l7,12.4l2-19.9l34-43.9l11.5-5.5l-18-25.8l-9.3,6.2l-5.6-14.1L546,88.1
				l0.3,25.5l-30-21.3l23.9-21.1l-1.4-25.5l-30.9,14.7l-7.7-2.3l-13.1-0.4l-30.7-12.6L437.7,49.1z"/>
			<path id="Path_71" class="st2" d="M477.7,22.8v2.9l-3.4,4.2l-1.8,1.9l1.1,7.6l-3.5,2.3l-5.7-0.7l-3.4-6.8l0.5-7.4l3.7-5.8
				L477.7,22.8z"/>
			<path id="Path_72" class="st2" d="M482.9,25l-6.4,7.3l4.1,7.5l1.7,2.7l-2.6,3.7l1.4,3.8l7.8,2.5l11.1,0.7l5.4-1.8l1.5-5.2l-8-2.8
				l0.3-11.9l-15.4-3.9l-0.6-1.7L482.9,25z"/>
			<path id="Path_73" class="st2" d="M509.1,24l-5.1,9.3l4.3,7.4l7.5-4.1l-2-6.2L509.1,24z"/>
			<path id="Path_74" class="st2" d="M541,27.2c-0.9,0.6-3.4,2-4.3,1.8s-3.7-5.7-3.7-5.7s-5.7,8-5.4,9.4s4.6,11.7,4.6,11.7l12.7,0.8
				l9.7,9.5v13.4l-7.6,2.4l0.3,4.9l11.9-0.8l9.8,10.8l6.8-10l-8.8-12l8.8,6l1.1-10.1l-10.6-6.1l-0.4-6.8l-13.6-12l-6.4,0.4l-2.7-1.2
				l-0.5-4.7L541,27.2z"/>
			<path id="Path_75" class="st2" d="M567.8,7l-16.4,18l32,14.1L594.1,80l12.4-2.8l15.4-16.8l21.5-9.8l5.1-34.7l9.4-12.4h-28.1
				L606.5,0l-16.4,5.8l-8,2L567.8,7z"/>
			<line id="Line_8" class="st4" x1="553.2" y1="205.9" x2="547.2" y2="212.8"/>
		</g>
	</g>
	<g id="Group_108">
		<g id="Group_22" transform="translate(-51.148 106.75)">
			<g id="Rectangle_28" transform="translate(559.442 1564)">
				<path d="M8.5,0h37C50.2,0,54,3.8,54,8.5l0,0c0,4.7-3.8,8.5-8.5,8.5h-37C3.8,17,0,13.2,0,8.5l0,0C0,3.8,3.8,0,8.5,0z"/>
				<path class="st5" d="M8.5,0.5h37c4.4,0,8,3.6,8,8l0,0c0,4.4-3.6,8-8,8h-37c-4.4,0-8-3.6-8-8l0,0C0.5,4.1,4.1,0.5,8.5,0.5z"/>
			</g>
			<g id="Rectangle_27" transform="translate(559.442 1562)">
				<path class="st6" d="M8.5,0h37C50.2,0,54,3.8,54,8.5l0,0c0,4.7-3.8,8.5-8.5,8.5h-37C3.8,17,0,13.2,0,8.5l0,0C0,3.8,3.8,0,8.5,0z
					"/>
				<path class="st5" d="M8.5,0.5h37c4.4,0,8,3.6,8,8l0,0c0,4.4-3.6,8-8,8h-37c-4.4,0-8-3.6-8-8l0,0C0.5,4.1,4.1,0.5,8.5,0.5z"/>
			</g>
			<text transform="matrix(1 0 0 1 575.442 1575.0011)" class="st7 st8">北欧</text>
		</g>
		<g id="Group_20" transform="translate(-52.706 106.75)">
			<g id="Rectangle_30" transform="translate(538 1621)">
				<path d="M8.5,0h35C48.2,0,52,3.8,52,8.5l0,0c0,4.7-3.8,8.5-8.5,8.5h-35C3.8,17,0,13.2,0,8.5l0,0C0,3.8,3.8,0,8.5,0z"/>
				<path class="st5" d="M8.5,0.5h35c4.4,0,8,3.6,8,8l0,0c0,4.4-3.6,8-8,8h-35c-4.4,0-8-3.6-8-8l0,0C0.5,4.1,4.1,0.5,8.5,0.5z"/>
			</g>
			<g id="Rectangle_29" transform="translate(538 1619)">
				<path class="st6" d="M8.5,0h35C48.2,0,52,3.8,52,8.5l0,0c0,4.7-3.8,8.5-8.5,8.5h-35C3.8,17,0,13.2,0,8.5l0,0C0,3.8,3.8,0,8.5,0z
					"/>
				<path class="st5" d="M8.5,0.5h35c4.4,0,8,3.6,8,8l0,0c0,4.4-3.6,8-8,8h-35c-4.4,0-8-3.6-8-8l0,0C0.5,4.1,4.1,0.5,8.5,0.5z"/>
			</g>
			<text transform="matrix(1 0 0 1 553 1632.0011)" class="st7 st8">⻄欧</text>
		</g>
		<g id="Group_21" transform="translate(10.294 127.75)">
			<g id="Rectangle_30-2" transform="translate(538 1621)">
				<path d="M8.5,0h44C57.2,0,61,3.8,61,8.5l0,0c0,4.7-3.8,8.5-8.5,8.5h-44C3.8,17,0,13.2,0,8.5l0,0C0,3.8,3.8,0,8.5,0z"/>
				<path class="st5" d="M8.5,0.5h44c4.4,0,8,3.6,8,8l0,0c0,4.4-3.6,8-8,8h-44c-4.4,0-8-3.6-8-8l0,0C0.5,4.1,4.1,0.5,8.5,0.5z"/>
			</g>
			<g id="Rectangle_29-2" transform="translate(538 1619)">
				<path class="st6" d="M8.5,0h44C57.2,0,61,3.8,61,8.5l0,0c0,4.7-3.8,8.5-8.5,8.5h-44C3.8,17,0,13.2,0,8.5l0,0C0,3.8,3.8,0,8.5,0z
					"/>
				<path class="st5" d="M8.5,0.5h44c4.4,0,8,3.6,8,8l0,0c0,4.4-3.6,8-8,8h-44c-4.4,0-8-3.6-8-8l0,0C0.5,4.1,4.1,0.5,8.5,0.5z"/>
			</g>
			<text transform="matrix(1 0 0 1 557 1632.0011)" class="st7 st8">東欧</text>
		</g>
		<g id="Group_23" transform="translate(66.294 187.75)">
			<g id="Rectangle_30-3" transform="translate(538 1621)">
				<path d="M8.5,0h44C57.2,0,61,3.8,61,8.5l0,0c0,4.7-3.8,8.5-8.5,8.5h-44C3.8,17,0,13.2,0,8.5l0,0C0,3.8,3.8,0,8.5,0z"/>
				<path class="st5" d="M8.5,0.5h44c4.4,0,8,3.6,8,8l0,0c0,4.4-3.6,8-8,8h-44c-4.4,0-8-3.6-8-8l0,0C0.5,4.1,4.1,0.5,8.5,0.5z"/>
			</g>
			<g id="Rectangle_29-3" transform="translate(538 1619)">
				<path class="st6" d="M8.5,0h44C57.2,0,61,3.8,61,8.5l0,0c0,4.7-3.8,8.5-8.5,8.5h-44C3.8,17,0,13.2,0,8.5l0,0C0,3.8,3.8,0,8.5,0z
					"/>
				<path class="st5" d="M8.5,0.5h44c4.4,0,8,3.6,8,8l0,0c0,4.4-3.6,8-8,8h-44c-4.4,0-8-3.6-8-8l0,0C0.5,4.1,4.1,0.5,8.5,0.5z"/>
			</g>
			<text transform="matrix(1 0 0 1 557 1632.0011)" class="st7 st8">中東</text>
		</g>
		<g id="Group_26" transform="translate(131.294 91.75)">
			<g id="Rectangle_30-4" transform="translate(538 1621)">
				<path d="M8.5,0h44C57.2,0,61,3.8,61,8.5l0,0c0,4.7-3.8,8.5-8.5,8.5h-44C3.8,17,0,13.2,0,8.5l0,0C0,3.8,3.8,0,8.5,0z"/>
				<path class="st5" d="M8.5,0.5h44c4.4,0,8,3.6,8,8l0,0c0,4.4-3.6,8-8,8h-44c-4.4,0-8-3.6-8-8l0,0C0.5,4.1,4.1,0.5,8.5,0.5z"/>
			</g>
			<g id="Rectangle_29-4" transform="translate(538 1619)">
				<path class="st0" d="M8.5,0h44C57.2,0,61,3.8,61,8.5l0,0c0,4.7-3.8,8.5-8.5,8.5h-44C3.8,17,0,13.2,0,8.5l0,0C0,3.8,3.8,0,8.5,0z
					"/>
				<path class="st9" d="M8.5,0.5h44c4.4,0,8,3.6,8,8l0,0c0,4.4-3.6,8-8,8h-44c-4.4,0-8-3.6-8-8l0,0C0.5,4.1,4.1,0.5,8.5,0.5z"/>
			</g>
			<text transform="matrix(1 0 0 1 551 1632.0011)" class="st6 st7 st8">アジア</text>
		</g>
		<g id="Group_24" transform="translate(-19.706 242.75)">
			<g id="Rectangle_30-5" transform="translate(538 1621)">
				<path d="M8.5,0h44C57.2,0,61,3.8,61,8.5l0,0c0,4.7-3.8,8.5-8.5,8.5h-44C3.8,17,0,13.2,0,8.5l0,0C0,3.8,3.8,0,8.5,0z"/>
				<path class="st5" d="M8.5,0.5h44c4.4,0,8,3.6,8,8l0,0c0,4.4-3.6,8-8,8h-44c-4.4,0-8-3.6-8-8l0,0C0.5,4.1,4.1,0.5,8.5,0.5z"/>
			</g>
			<g id="Rectangle_29-5" transform="translate(538 1619)">
				<path class="st6" d="M8.5,0h44C57.2,0,61,3.8,61,8.5l0,0c0,4.7-3.8,8.5-8.5,8.5h-44C3.8,17,0,13.2,0,8.5l0,0C0,3.8,3.8,0,8.5,0z
					"/>
				<path class="st5" d="M8.5,0.5h44c4.4,0,8,3.6,8,8l0,0c0,4.4-3.6,8-8,8h-44c-4.4,0-8-3.6-8-8l0,0C0.5,4.1,4.1,0.5,8.5,0.5z"/>
			</g>
			<text transform="matrix(1 0 0 1 545 1632.0011)" class="st7 st8">アフリカ</text>
		</g>
		<g id="Group_25" transform="translate(241.294 282.75)">
			<g id="Rectangle_30-6" transform="translate(538 1621)">
				<path d="M8.5,0h52C65.2,0,69,3.8,69,8.5l0,0c0,4.7-3.8,8.5-8.5,8.5h-52C3.8,17,0,13.2,0,8.5l0,0C0,3.8,3.8,0,8.5,0z"/>
				<path class="st5" d="M8.5,0.5h52c4.4,0,8,3.6,8,8l0,0c0,4.4-3.6,8-8,8h-52c-4.4,0-8-3.6-8-8l0,0C0.5,4.1,4.1,0.5,8.5,0.5z"/>
			</g>
			<g id="Rectangle_29-6" transform="translate(538 1619)">
				<path class="st6" d="M8.5,0h52C65.2,0,69,3.8,69,8.5l0,0c0,4.7-3.8,8.5-8.5,8.5h-52C3.8,17,0,13.2,0,8.5l0,0C0,3.8,3.8,0,8.5,0z
					"/>
				<path class="st5" d="M8.5,0.5h52c4.4,0,8,3.6,8,8l0,0c0,4.4-3.6,8-8,8h-52c-4.4,0-8-3.6-8-8l0,0C0.5,4.1,4.1,0.5,8.5,0.5z"/>
			</g>
			<text transform="matrix(1 0 0 1 543 1632.0011)" class="st7 st8">オセアニア</text>
		</g>
		<g id="Group_27" transform="translate(389.147 128.75)">
			<g id="Rectangle_30-7" transform="translate(538 1621)">
				<path d="M8.5,0h52C65.2,0,69,3.8,69,8.5l0,0c0,4.7-3.8,8.5-8.5,8.5h-52C3.8,17,0,13.2,0,8.5l0,0C0,3.8,3.8,0,8.5,0z"/>
				<path class="st5" d="M8.5,0.5h52c4.4,0,8,3.6,8,8l0,0c0,4.4-3.6,8-8,8h-52c-4.4,0-8-3.6-8-8l0,0C0.5,4.1,4.1,0.5,8.5,0.5z"/>
			</g>
			<g id="Rectangle_29-7" transform="translate(538 1619)">
				<path class="st6" d="M8.5,0h52C65.2,0,69,3.8,69,8.5l0,0c0,4.7-3.8,8.5-8.5,8.5h-52C3.8,17,0,13.2,0,8.5l0,0C0,3.8,3.8,0,8.5,0z
					"/>
				<path class="st5" d="M8.5,0.5h52c4.4,0,8,3.6,8,8l0,0c0,4.4-3.6,8-8,8h-52c-4.4,0-8-3.6-8-8l0,0C0.5,4.1,4.1,0.5,8.5,0.5z"/>
			</g>
			<text transform="matrix(1 0 0 1 543 1632.0011)" class="st7 st8">北アメリカ</text>
		</g>
		<g id="Group_28" transform="translate(461.294 249.75)">
			<g id="Rectangle_30-8" transform="translate(538 1621)">
				<path d="M8.5,0h52C65.2,0,69,3.8,69,8.5l0,0c0,4.7-3.8,8.5-8.5,8.5h-52C3.8,17,0,13.2,0,8.5l0,0C0,3.8,3.8,0,8.5,0z"/>
				<path class="st5" d="M8.5,0.5h52c4.4,0,8,3.6,8,8l0,0c0,4.4-3.6,8-8,8h-52c-4.4,0-8-3.6-8-8l0,0C0.5,4.1,4.1,0.5,8.5,0.5z"/>
			</g>
			<g id="Rectangle_29-8" transform="translate(538 1619)">
				<path class="st6" d="M8.5,0h52C65.2,0,69,3.8,69,8.5l0,0c0,4.7-3.8,8.5-8.5,8.5h-52C3.8,17,0,13.2,0,8.5l0,0C0,3.8,3.8,0,8.5,0z
					"/>
				<path class="st5" d="M8.5,0.5h52c4.4,0,8,3.6,8,8l0,0c0,4.4-3.6,8-8,8h-52c-4.4,0-8-3.6-8-8l0,0C0.5,4.1,4.1,0.5,8.5,0.5z"/>
			</g>
			<text transform="matrix(1 0 0 1 542.9999 1632.0011)" class="st7 st8">南アメリカ</text>
		</g>
	</g>
</g>
</svg>
