<?xml version="1.0" encoding="UTF-8" standalone="no"?>
<svg
   width="641"
   height="338"
   viewBox="0 0 641 338"
   version="1.1"
   id="svg419"
   sodipodi:docname="map5.svg"
   inkscape:version="1.2 (dc2aedaf03, 2022-05-15)"
   xmlns:inkscape="http://www.inkscape.org/namespaces/inkscape"
   xmlns:sodipodi="http://sodipodi.sourceforge.net/DTD/sodipodi-0.dtd"
   xmlns="http://www.w3.org/2000/svg"
   xmlns:svg="http://www.w3.org/2000/svg">
  <sodipodi:namedview
     id="namedview421"
     pagecolor="#505050"
     bordercolor="#eeeeee"
     borderopacity="1"
     inkscape:showpageshadow="0"
     inkscape:pageopacity="0"
     inkscape:pagecheckerboard="0"
     inkscape:deskcolor="#505050"
     showgrid="false"
     inkscape:zoom="0.90509668"
     inkscape:cx="496.63203"
     inkscape:cy="181.19611"
     inkscape:window-width="1600"
     inkscape:window-height="837"
     inkscape:window-x="-8"
     inkscape:window-y="-8"
     inkscape:window-maximized="1"
     inkscape:current-layer="Group_191"
     inkscape:lockguides="true" />
  <defs
     id="defs315">
    <inkscape:perspective
       sodipodi:type="inkscape:persp3d"
       inkscape:vp_x="0 : 169 : 1"
       inkscape:vp_y="0 : 1000 : 0"
       inkscape:vp_z="641 : 169 : 1"
       inkscape:persp3d-origin="320.5 : 112.66667 : 1"
       id="perspective3132" />
    <filter
       id="Rectangle_314"
       x="0"
       y="0"
       width="641"
       height="338"
       filterUnits="userSpaceOnUse"
       inkscape:label="Rectangle_314">
      <feOffset
         dx="-3"
         dy="6"
         input="SourceAlpha"
         id="feOffset216" />
      <feGaussianBlur
         result="blur"
         id="feGaussianBlur218" />
      <feFlood
         flood-color="#000081"
         flood-opacity="0.502"
         id="feFlood220" />
      <feComposite
         operator="in"
         in2="blur"
         id="feComposite222"
         result="result1" />
      <feComposite
         in="SourceGraphic"
         in2="result1"
         id="feComposite224" />
    </filter>
    <filter
       id="Rectangle_27"
       x="460.793"
       y="101.75"
       width="58"
       height="22"
       filterUnits="userSpaceOnUse">
      <feOffset
         dy="2"
         input="SourceAlpha"
         id="feOffset227" />
      <feGaussianBlur
         result="blur-2"
         id="feGaussianBlur229" />
      <feFlood
         flood-color="#000081"
         id="feFlood231" />
      <feComposite
         operator="in"
         in2="blur-2"
         id="feComposite233"
         result="result1" />
      <feComposite
         in2="result1"
         id="feComposite235"
         in="SourceGraphic" />
    </filter>
    <filter
       id="Rectangle_27-2"
       x="87.793"
       y="91.75"
       width="74"
       height="22"
       filterUnits="userSpaceOnUse">
      <feOffset
         dy="2"
         input="SourceAlpha"
         id="feOffset238" />
      <feGaussianBlur
         result="blur-3"
         id="feGaussianBlur240" />
      <feFlood
         flood-color="#000081"
         id="feFlood242" />
      <feComposite
         operator="in"
         in2="blur-3"
         id="feComposite244"
         result="result1" />
      <feComposite
         in="SourceGraphic"
         in2="result1"
         id="feComposite246" />
    </filter>
    <filter
       id="Rectangle_27-3"
       x="8.793"
       y="126.75"
       width="74"
       height="22"
       filterUnits="userSpaceOnUse">
      <feOffset
         dy="2"
         input="SourceAlpha"
         id="feOffset249" />
      <feGaussianBlur
         result="blur-4"
         id="feGaussianBlur251" />
      <feFlood
         flood-color="#000081"
         id="feFlood253" />
      <feComposite
         operator="in"
         in2="blur-4"
         id="feComposite255"
         result="result1" />
      <feComposite
         in="SourceGraphic"
         in2="result1"
         id="feComposite257" />
    </filter>
    <filter
       id="Rectangle_27-4"
       x="25.793"
       y="220.75"
       width="74"
       height="22"
       filterUnits="userSpaceOnUse">
      <feOffset
         dy="2"
         input="SourceAlpha"
         id="feOffset260" />
      <feGaussianBlur
         result="blur-5"
         id="feGaussianBlur262" />
      <feFlood
         flood-color="#000081"
         id="feFlood264" />
      <feComposite
         operator="in"
         in2="blur-5"
         id="feComposite266"
         result="result1" />
      <feComposite
         in="SourceGraphic"
         in2="result1"
         id="feComposite268" />
    </filter>
    <filter
       id="Rectangle_27-5"
       x="214.793"
       y="261.75"
       width="74"
       height="22"
       filterUnits="userSpaceOnUse">
      <feOffset
         dy="2"
         input="SourceAlpha"
         id="feOffset271" />
      <feGaussianBlur
         result="blur-6"
         id="feGaussianBlur273" />
      <feFlood
         flood-color="#000081"
         id="feFlood275" />
      <feComposite
         operator="in"
         in2="blur-6"
         id="feComposite277"
         result="result1" />
      <feComposite
         in="SourceGraphic"
         in2="result1"
         id="feComposite279" />
    </filter>
    <filter
       id="Rectangle_27-6"
       x="346.003"
       y="249.75"
       width="155.683"
       height="22"
       filterUnits="userSpaceOnUse">
      <feOffset
         dy="2"
         input="SourceAlpha"
         id="feOffset282" />
      <feGaussianBlur
         result="blur-7"
         id="feGaussianBlur284" />
      <feFlood
         flood-color="#000081"
         id="feFlood286" />
      <feComposite
         operator="in"
         in2="blur-7"
         id="feComposite288"
         result="result1" />
      <feComposite
         in="SourceGraphic"
         in2="result1"
         id="feComposite290" />
    </filter>
    <filter
       id="Rectangle_27-7"
       x="112.793"
       y="159.75"
       width="58"
       height="22"
       filterUnits="userSpaceOnUse">
      <feOffset
         dy="2"
         input="SourceAlpha"
         id="feOffset293" />
      <feGaussianBlur
         result="blur-8"
         id="feGaussianBlur295" />
      <feFlood
         flood-color="#000081"
         id="feFlood297" />
      <feComposite
         operator="in"
         in2="blur-8"
         id="feComposite299"
         result="result1" />
      <feComposite
         in="SourceGraphic"
         in2="result1"
         id="feComposite301" />
    </filter>
    <filter
       id="Rectangle_27-8"
       x="523.793"
       y="234.75"
       width="58"
       height="22"
       filterUnits="userSpaceOnUse">
      <feOffset
         dy="2"
         input="SourceAlpha"
         id="feOffset304" />
      <feGaussianBlur
         result="blur-9"
         id="feGaussianBlur306" />
      <feFlood
         flood-color="#000081"
         id="feFlood308" />
      <feComposite
         operator="in"
         in2="blur-9"
         id="feComposite310"
         result="result1" />
      <feComposite
         in="SourceGraphic"
         in2="result1"
         id="feComposite312" />
    </filter>
    <filter
       id="Rectangle_314-8"
       x="0"
       y="0"
       width="641"
       height="338"
       filterUnits="userSpaceOnUse">
      <feOffset
         dx="-3"
         dy="6"
         input="SourceAlpha"
         id="feOffset9395" />
      <feGaussianBlur
         result="blur"
         id="feGaussianBlur9397" />
      <feFlood
         flood-color="#000081"
         flood-opacity="0.502"
         id="feFlood9399"
         result="result1" />
      <feComposite
         in="SourceGraphic"
         in2="result1"
         id="feComposite9403" />
    </filter>
    <filter
       id="Rectangle_27-81"
       x="460.793"
       y="101.75"
       width="58"
       height="22"
       filterUnits="userSpaceOnUse">
      <feOffset
         dy="2"
         input="SourceAlpha"
         id="feOffset227-6" />
      <feGaussianBlur
         result="blur-2"
         id="feGaussianBlur229-1" />
      <feFlood
         flood-color="#000081"
         id="feFlood231-1" />
      <feComposite
         operator="in"
         in2="blur-2"
         id="feComposite233-9"
         result="result1" />
      <feComposite
         in2="result1"
         id="feComposite235-5"
         in="SourceGraphic" />
    </filter>
    <filter
       id="Rectangle_27-2-5"
       x="87.792999"
       y="91.75"
       width="74"
       height="22"
       filterUnits="userSpaceOnUse">
      <feOffset
         dy="2"
         input="SourceAlpha"
         id="feOffset238-4" />
      <feGaussianBlur
         result="blur-3"
         id="feGaussianBlur240-7" />
      <feFlood
         flood-color="#000081"
         id="feFlood242-3" />
      <feComposite
         operator="in"
         in2="blur-3"
         id="feComposite244-0"
         result="result1" />
      <feComposite
         in="SourceGraphic"
         in2="result1"
         id="feComposite246-0" />
    </filter>
    <filter
       id="Rectangle_27-4-1"
       x="25.792999"
       y="220.75"
       width="74"
       height="22"
       filterUnits="userSpaceOnUse">
      <feOffset
         dy="2"
         input="SourceAlpha"
         id="feOffset260-9" />
      <feGaussianBlur
         result="blur-5"
         id="feGaussianBlur262-1" />
      <feFlood
         flood-color="#000081"
         id="feFlood264-8" />
      <feComposite
         operator="in"
         in2="blur-5"
         id="feComposite266-1"
         result="result1" />
      <feComposite
         in="SourceGraphic"
         in2="result1"
         id="feComposite268-5" />
    </filter>
    <filter
       id="Rectangle_27-5-3"
       x="214.793"
       y="261.75"
       width="74"
       height="22"
       filterUnits="userSpaceOnUse">
      <feOffset
         dy="2"
         input="SourceAlpha"
         id="feOffset271-9" />
      <feGaussianBlur
         result="blur-6"
         id="feGaussianBlur273-5" />
      <feFlood
         flood-color="#000081"
         id="feFlood275-1" />
      <feComposite
         operator="in"
         in2="blur-6"
         id="feComposite277-8"
         result="result1" />
      <feComposite
         in="SourceGraphic"
         in2="result1"
         id="feComposite279-5" />
    </filter>
    <filter
       id="Rectangle_27-6-2"
       x="346.00299"
       y="249.75"
       width="155.683"
       height="22"
       filterUnits="userSpaceOnUse">
      <feOffset
         dy="2"
         input="SourceAlpha"
         id="feOffset282-3" />
      <feGaussianBlur
         result="blur-7"
         id="feGaussianBlur284-3" />
      <feFlood
         flood-color="#000081"
         id="feFlood286-0" />
      <feComposite
         operator="in"
         in2="blur-7"
         id="feComposite288-1"
         result="result1" />
      <feComposite
         in="SourceGraphic"
         in2="result1"
         id="feComposite290-9" />
    </filter>
    <filter
       id="Rectangle_27-8-3"
       x="523.79303"
       y="234.75"
       width="58"
       height="22"
       filterUnits="userSpaceOnUse">
      <feOffset
         dy="2"
         input="SourceAlpha"
         id="feOffset304-1" />
      <feGaussianBlur
         result="blur-9"
         id="feGaussianBlur306-9" />
      <feFlood
         flood-color="#000081"
         id="feFlood308-8" />
      <feComposite
         operator="in"
         in2="blur-9"
         id="feComposite310-2"
         result="result1" />
      <feComposite
         in="SourceGraphic"
         in2="result1"
         id="feComposite312-2" />
    </filter>
  </defs>
  <g
     id="Group_191"
     data-name="Group 191"
     transform="translate(-507.997,-1612)"
     style="display:inline">
    <g
       id="Group_19"
       transform="matrix(0.9721391,0,0,0.95434073,-479.21545,849.08447)"
       style="display:inline">
		<g
   id="Group_17"
   transform="translate(1016,807.094)"
   style="display:inline">
			<g
   id="Group_16"
   style="display:inline">
				
				
				
				
				
				
				
				
				
				
				
				
				
				
				
				
				
				
				
				
				
				
				<g
   id="g12009_guam"
   style="display:inline"
   transform="matrix(1.0286594,0,0,1.0478438,-0.49465719,-7.6777056)">
  <path
     style="fill:#16255b;fill-opacity:1;stroke:none;stroke-width:0.96319879;stroke-dasharray:none;stroke-opacity:1;font-variation-settings:normal;opacity:1;vector-effect:none;stroke-linecap:butt;stroke-linejoin:miter;stroke-miterlimit:4;stroke-dashoffset:0;-inkscape-stroke:none;stop-color:#000000;stop-opacity:1"
     d="m 930.95626,1816.9185 -2.5184,4.2416 1.72312,1.9882 2.91605,0.6627 1.98821,0.1326 2.38585,-1.7232 v -1.5905 l -2.12076,-3.5788 -2.78349,-0.5302 z"
     id="path12016"
     transform="translate(-508,-1612)" />
  <path
     style="fill:#16255b;fill-opacity:1;stroke:none;stroke-width:0.96319879;stroke-dasharray:none;stroke-opacity:1;font-variation-settings:normal;opacity:1;vector-effect:none;stroke-linecap:butt;stroke-linejoin:miter;stroke-miterlimit:4;stroke-dashoffset:0;-inkscape-stroke:none;stop-color:#000000;stop-opacity:1"
     d="m 443.89878,216.45017 2.7835,3.84387 1.85566,-0.66273 1.45803,-0.13255 2.25331,2.25331 2.5184,-1.19293 0.13255,-3.18114 -1.85567,-0.39764 -4.90426,-2.38586 z"
     id="path14110" />
  <path
     style="fill:#16255b;fill-opacity:1;stroke:none;stroke-width:0.96319879;stroke-dasharray:none;stroke-opacity:1;font-variation-settings:normal;opacity:1;vector-effect:none;stroke-linecap:butt;stroke-linejoin:miter;stroke-miterlimit:4;stroke-dashoffset:0;-inkscape-stroke:none;stop-color:#000000;stop-opacity:1"
     d="m 458.61156,221.22188 2.25331,3.04859 5.56699,0.66274 1.98822,-3.44624 -5.16936,-1.45802 -2.25331,-0.13255 z"
     id="path14112" />
  <path
     style="fill:#16255b;fill-opacity:1;stroke:none;stroke-width:0.96319879;stroke-dasharray:none;stroke-opacity:1;font-variation-settings:normal;opacity:1;vector-effect:none;stroke-linecap:butt;stroke-linejoin:miter;stroke-miterlimit:4;stroke-dashoffset:0;-inkscape-stroke:none;stop-color:#000000;stop-opacity:1"
     d="m 468.55262,224.27047 0.39765,1.72312 2.25331,3.18114 1.72311,2.91605 1.06038,0.26509 6.75993,-2.38585 -1.98821,-5.16936 -2.65095,-0.39764 -2.38586,-0.53019 -1.98821,-1.06038 h -1.06038 z"
     id="path14114" />
  <path
     style="fill:#16255b;fill-opacity:1;stroke:none;stroke-width:0.96319879;stroke-dasharray:none;stroke-opacity:1;font-variation-settings:normal;opacity:1;vector-effect:none;stroke-linecap:butt;stroke-linejoin:miter;stroke-miterlimit:4;stroke-dashoffset:0;-inkscape-stroke:none;stop-color:#000000;stop-opacity:1"
     d="m 481.54229,236.72994 0.26509,3.71133 -1.72312,2.91605 -1.45802,2.25331 2.5184,4.63916 0.39765,1.45803 -1.19293,3.84388 4.77171,3.97642 0.66274,0.66274 6.36228,-7.29012 8.61559,-3.44623 -2.5184,-6.22974 -13.25476,-7.29011 -2.12076,-0.39765 z"
     id="path14116" />
</g>

				
				
				
				
				<g
   id="g6779_s_america"
   style="display:inline">
  <path
     id="Path_42"
     class="st0"
     d="m 547.1,212.8 -3.7,23.3 19.7,18.8 v 7 l -3.1,27.5 -5.9,31.7 4.8,19.1 h 10.4 l 21.6,-51.4 15.4,-19.4 10.1,-2 12.1,-27.8 -30.9,-13.3 -10.9,-13.9 -32.3,-5.9 c -0.15486,0.0982 -7.70235,6.23889 -7.3,6.3 z"
     style="display:inline;fill:#16255b"
     sodipodi:nodetypes="cccccccccccccccc" />
</g>
<g
   id="g6015_n_america"
   style="display:inline">
  <path
     id="Path_47"
     class="st0"
     d="m 567.8,7 -16.4,18 32,14.1 10.7,40.9 12.4,-2.8 15.4,-16.8 21.5,-9.8 5.1,-34.7 9.4,-12.4 H 629.8 L 606.5,0 l -16.4,5.8 -8,2 z"
     style="display:inline;fill:#16255b" />
  <path
     id="Path_46"
     class="st0"
     d="m 541,27.2 c -0.9,0.6 -3.4,2 -4.3,1.8 -0.9,-0.2 -3.7,-5.7 -3.7,-5.7 0,0 -5.7,8 -5.4,9.4 0.3,1.4 4.6,11.7 4.6,11.7 l 12.7,0.8 9.7,9.5 v 13.4 l -7.6,2.4 0.3,4.9 11.9,-0.8 9.8,10.8 6.8,-10 -8.8,-12 8.8,6 1.1,-10.1 -10.6,-6.1 -0.4,-6.8 -13.6,-12 -6.4,0.4 -2.7,-1.2 -0.5,-4.7 z"
     style="display:inline;fill:#16255b" />
  <path
     id="Path_45"
     class="st0"
     d="m 509.1,24 -5.1,9.3 4.3,7.4 7.5,-4.1 -2,-6.2 z"
     style="display:inline;fill:#16255b" />
  <path
     id="Path_44"
     class="st0"
     d="m 482.9,25 -6.4,7.3 4.1,7.5 1.7,2.7 -2.6,3.7 1.4,3.8 7.8,2.5 11.1,0.7 5.4,-1.8 1.5,-5.2 -8,-2.8 0.3,-11.9 -15.4,-3.9 -0.6,-1.7 z"
     style="display:inline;fill:#16255b" />
  <path
     id="Path_43"
     class="st0"
     d="m 477.7,22.8 v 2.9 l -3.4,4.2 -1.8,1.9 1.1,7.6 -3.5,2.3 -5.7,-0.7 -3.4,-6.8 0.5,-7.4 3.7,-5.8 z"
     style="display:inline;fill:#16255b" />
  <path
     id="Path_77"
     class="st0"
     d="m 437.7,49.1 -34.8,-10.4 -15.7,23 6.5,32.6 22.7,-9 31.7,5.9 19.9,35.1 v 32 l 20.2,21.9 v -15.4 l 12.6,25.8 46.3,22.2 c 0,0 7.2867,-6.38211 7.3,-6.3 l -35.7,-19.9 -1.7,-13.8 20.8,-0.8 7,12.4 2,-19.9 34,-43.9 11.5,-5.5 -18,-25.8 -9.3,6.2 -5.6,-14.1 -13.4,6.7 0.3,25.5 -30,-21.3 23.9,-21.1 -1.4,-25.5 -30.9,14.7 -7.7,-2.3 -13.1,-0.4 -30.7,-12.6 z"
     style="display:inline;fill:#16255b"
     sodipodi:nodetypes="ccccccccccccccccccccccccccccccccc" />
</g>
<g
   id="g6205_ocean"
   style="display:inline">
  <path
     id="Path_39"
     class="st0"
     d="m 354.2,308.5 -3.6,-2.8 -10.4,13.3 4.1,3.6 -2.1,2.7 c 0,0 3.1,0.3 3.4,0 0.3,-0.3 11.9,-15.2 11.9,-15.2 z"
     style="fill:#16255b" />
  <path
     id="Path_38"
     class="st0"
     d="m 357.5,296.4 -3.5,2.1 -0.8,7.2 4.3,1.8 4.3,-5.4 z"
     style="display:inline;fill:#16255b" />
  <path
     id="Path_37"
     class="st0"
     d="m 308.8,305.7 -7.5,1.1 2.1,14.5 5.4,-2.8 -1.7,-5.5 2.2,-2.9 z"
     style="display:inline;fill:#16255b" />
  <path
     id="Path_36"
     class="st0"
     d="m 299.8,247.5 -4.4,15.2 -8.7,-1.4 1.3,-12.4 -8.1,-0.3 -32,19.9 1.1,23.9 32.6,-2.9 13.9,12.6 H 315 l 5.8,-23 z"
     style="display:inline;fill:#16255b" />
  <path
     id="Path_35"
     class="st0"
     d="m 315.4,246.1 -9.4,-11.4 -6.9,-2.2 -2,9.8 9.8,8.1 5.6,4.2 4.1,-1 -8,-7.5 z"
     style="display:inline;fill:#16255b" />
</g>
<g
   id="g6395_asia"
   style="display:inline">
  <path
     id="Path_34"
     class="st0"
     d="m 299.1,232.5 -9,-6 -11.2,0.7 2.8,8.6 9.7,2.7 c 0,0 0.8,5.6 1.3,5.6 0.5,0 4.5,-1.8 4.5,-1.8 z"
     style="display:inline;fill:#16255b" />
  <path
     id="Path_33"
     class="st0"
     d="m 294.2,143.7 c 0,0 3.6,1.9 3.6,2.2 0,0.3 -0.4,2.7 -0.5,4.3 0,1.9 0.2,3.9 0.5,5.8 -0.1,1.6 -0.3,3.2 -0.5,4.7 l -7.4,2.7 c -0.6,0.8 -1.2,1.6 -2,2.2 -0.8,0.7 -1.7,1.2 -2.6,1.5 -1.4,0.3 -1.7,-0.3 -3.4,0.7 -1.7,1 -1.3,2.1 -2.8,2 -1.5,-0.1 -3.4,0 -3.9,-0.9 -0.5,-0.9 -1.5,-4.9 -0.8,-5.3 0.7,-0.4 6.4,-5.4 6.4,-5.4 l 8,-3.4 c 0,0 6.3,-3.9 6.2,-4.2 -0.1,-0.3 -0.8,-6.9 -0.8,-6.9 z"
     style="display:inline;fill:#16255b" />
  <path
     id="Path_32"
     class="st0"
     d="m 302.5,136.1 h -4.7 c -1,0.5 -2,1.1 -2.8,1.8 -0.4,0.6 -0.9,2.4 -0.5,3.1 1.3,1.1 2.6,2.2 4,3.2 0,0 3.7,0.1 4.8,-0.8 1.1,-0.9 3.6,-2.7 3.1,-3.6 -0.5,-0.9 -3.9,-3.7 -3.9,-3.7 z"
     style="display:inline;fill:#16255b" />
  <path
     id="Path_31"
     class="st0"
     d="m 300.8,113 -2.9,-2.7 c 0,0 -0.4,1.4 -0.5,2 -0.1,0.6 0.7,7.8 0.7,8.4 0,0.6 0.2,8.4 0.2,8.4 0,0 -0.2,2.2 0.8,1.7 1,-0.5 4,-0.5 4.1,-1.8 -0.1,-2.2 -0.4,-4.3 -0.7,-6.4 -0.1,-0.8 0.3,-5.6 0.2,-6.1 -0.6,-1.2 -1.2,-2.3 -1.9,-3.5 z"
     style="display:inline;fill:#16255b" />
  <path
     id="Path_30"
     class="st0"
     d="m 263.3,179.1 c -0.3,-0.1 -5.8,4.6 -5.8,4.6 0,0 -1.1,4.4 -0.8,4.6 0.3,0.2 7.4,0 7.4,0 z"
     style="display:inline;fill:#16255b" />
  <path
     id="Path_29"
     class="st0"
     d="m 264.7,194.6 c -0.4,0 -8,2 -8,2 0,0 -1.2,2.5 0,2.9 2.1,0.8 4.1,1.8 6.1,2.9 1.6,1 3.3,1.8 5.1,2.6 z"
     style="display:inline;fill:#16255b" />
  <path
     id="Path_28"
     class="st0"
     d="m 270.4,208.6 -7.1,1.8 c 0,0 2,6.9 2.2,6.9 0.2,0 5.7,-2.5 5.7,-2.5 z"
     style="display:inline;fill:#16255b" />
  <path
     id="Path_27"
     class="st0"
     d="m 264.1,228.4 2.7,-2.5 -3.8,-1.3 -4.4,2.9 -2.8,3.3 c 0.1,1.6 0.3,3.1 0.6,4.7 0.2,0.1 4.3,1.8 4.9,1.2 1.3,-1.2 2.5,-2.5 3.6,-3.8 0,-0.2 -0.8,-4.5 -0.8,-4.5 z"
     style="display:inline;fill:#16255b" />
  <path
     id="Path_26"
     class="st0"
     d="m 247.9,243.7 -1.2,-5.3 c 0,0 -7.9,-2.7 -8.1,-2.7 -0.2,0 -6.2,4.6 -6.2,4.6 0,0 -1.8,2.7 -0.8,2.9 1,0.2 10.7,2.9 10.7,2.9 z"
     style="display:inline;fill:#16255b" />
  <path
     id="Path_25"
     class="st0"
     d="m 252.9,213 5.7,4.8 -2.5,3.9 0.2,4.6 c 0,0 -4,4.1 -4.1,4.3 -0.1,0.2 -3,4 -3.7,4 -0.7,0 -4.8,-0.6 -5.3,-0.6 -0.9,-0.4 -1.7,-1 -2.5,-1.6 0,0 -1.5,-2.5 -1.7,-2.9 -0.2,-0.4 -1.7,-3.2 -1.7,-3.2 l 3.2,-4.5 5.2,0.8 z"
     style="display:inline;fill:#16255b" />
  <path
     id="Path_24"
     class="st0"
     d="m 217.3,215.8 -4.4,3.7 2.7,7.6 14.4,12.6 4,-8.6 -12.1,-7.4 -3,-4.9 z"
     style="display:inline;fill:#16255b" />
  <path
     id="Path_23"
     class="st0"
     d="m 190.6,213.7 -2.6,-4.1 -3.7,3.6 2,6 h 4.3 z"
     style="display:inline;fill:#16255b" />
  <path
     id="Path_21"
     class="st0"
     d="M 352.4,44.9 330.5,48.5 297,31.9 295.7,41.4 273,38.6 266.5,28.3 H 247.1 L 240.2,22 233.5,28.7 236.7,9.3 217.8,6.6 180.7,31.7 159.3,54 147.3,51.4 107.5,76.3 96.2,61.8 111.8,66.4 V 55 l -24,-16 -8,5.1 0.3,0.6 20.3,36.7 -4.6,9.1 h 11.8 l 2.1,4.2 -5.1,5.5 17.3,8.4 6.3,-2.9 2.1,8.4 -5.9,6.7 -10.9,16 6.3,9.7 2.9,7.6 0.8,6.3 22.7,28.6 h 26.1 l 9.3,23.2 21.5,-27.8 10.1,12.6 3.4,-0.8 2.3,4.8 -1.5,12.6 4.4,3.4 v 4 l 2.3,2.5 4.6,2.9 1.7,-4.2 -2.3,-5.1 -5.9,-7.4 1.9,-8 7.6,9.3 7.6,-10.1 -7.4,-12.4 h 15.4 l 16.4,-17.3 -7.8,-15 5.1,-6.3 6.3,9.3 6.5,1.3 -1.3,-10.7 12.6,-7.8 9.7,-27.8 -9.7,-6.3 14.5,-13.1 20.6,1.3 8.2,-11.2 1.1,1.1 -12,16.6 9.3,19.6 c 0,0 8.2,-25.9 16,-31 5.5,-3.4 11.3,-6.5 17.3,-9.1 l 1.9,-0.8 v -8.4 l 16.4,2.9 1.7,-12 z"
     style="display:inline;fill:#16255b" />
</g>
<g
   id="g6202_africa"
   style="display:inline">
  <path
     id="Path_40"
     class="st0"
     d="m 130.2,248.4 4.1,3.8 -6,20 -6.1,1.4 c 0,0 -3.8,-2.3 -3.8,-2.7 0.9,-1.8 1.9,-3.5 3.1,-5.2 l 0.6,-5.7 -0.1,-4.3 4.9,-1.6 z"
     style="fill:#16255b" />
  <path
     id="Path_22"
     class="st0"
     d="m 56.6,153.1 -32.4,10.1 -12.4,41.3 20,16.8 14.7,-5.9 10.1,4 v 15 l 9.1,13.9 -2.3,25.3 c 0,0 9.7,10.7 10.3,19.4 l 20.4,-8.2 c 0,0 9.3,-22.5 18.3,-29.1 l 1.1,-24.2 17.3,-17.9 V 205 l -12.2,2.1 -16.6,-29.5 -1.3,-1.5 2.8,-8.2 -24.5,-1.4 -2.7,3.6 z"
     style="display:inline;fill:#16255b" />
</g>

				<g
   id="g6199_europe"
   style="display:inline">
  <path
     id="Path_41"
     class="st0"
     d="m 10.4,65.4 c 0,0 6.6,5.5 6,6 -0.6,0.5 -6,6.3 -6,6.3 L 0,76.8 V 71 Z"
     style="fill:#16255b" />
  <path
     id="Path_20"
     class="st0"
     d="m 122.7,154 -2.9,-7.6 -6.3,-9.7 10.9,-16 5.9,-6.7 -2.1,-8.4 -6.3,2.9 -17.3,-8.4 5.1,-5.5 -2.1,-4.2 H 95.7 l 4.6,-9.1 -20.2,-36.6 -0.8,-0.4 -19.5,19 v 6.9 l -12.7,15.6 3.8,11.4 5.9,1.1 3.2,-4.4 5.5,13.7 7.5,-11.1 -0.4,-7.8 -2.5,-8.6 8.2,-12.4 5.7,2.1 -4.2,9.9 v 9.5 l 13.7,2.5 -9.3,2.7 -7.6,15.8 -8.2,-1.7 -6.9,1.7 -3.6,-4.4 -3.6,-2.5 -2.1,1.5 -14.3,17.7 c 0,0 -1.3,-7.6 -1.3,-8.2 v -13.7 l -3.6,-4.3 -4.4,1.1 -1.3,2.3 4,4 -2.5,20 c 0,0 1.7,4.2 2.7,4.6 2,1.2 4,2.6 5.9,4 l -2.9,2.1 -2.3,2.3 h -4.8 l -3.2,0.8 1.5,18.7 12.8,-2.7 1.3,-8.6 8,-1.7 4.2,-4.2 6.8,0.2 12.7,13.5 c 0,0 2.1,-4.6 1.9,-5.3 -0.2,-0.7 -10.7,-12.2 -10.7,-12.2 h 4 l 7.6,3.4 4.4,12.8 12.4,-8.2 2.3,-10.5 2.1,9.5 -5.7,9.3 -2.5,4.8 h 15.6 l 2.9,1.1 -2.9,12.8 -2.3,5.9 20.4,23.8 8.8,1.3 16.4,-12.2 -22.7,-28.6 z"
     style="display:inline;fill:#16255b"
     inkscape:label="Path_20" />
</g>
<line
   id="Line_7"
   class="st1"
   x1="553.20001"
   y1="205.89999"
   x2="547.20001"
   y2="212.8"
   style="display:inline;fill:none" />

			</g>

		</g>

		<g
   id="Group_18"
   transform="translate(1016,799.935)"
   style="display:inline"><g
   id="g11676"
   style="display:inline" />
<g
   filter="url(#Rectangle_314)"
   id="g9497_guam"
   style="display:inline;filter:url(#Rectangle_314-8)"
   transform="matrix(1.0286594,0,0,1.0478438,-0.4947,-0.51870557)">
  <path
     style="display:inline;fill:#2857f7;fill-opacity:1;stroke:#000000;stroke-width:0.96319879;stroke-dasharray:none;stroke-opacity:1;font-variation-settings:normal;opacity:1;vector-effect:none;stroke-linecap:butt;stroke-linejoin:miter;stroke-miterlimit:10;stroke-dashoffset:0;-inkscape-stroke:none;stop-color:#000000;stop-opacity:1"
     d="m 423.63826,203.00895 2.06196,2.24941 3.74901,0.56235 2.43685,-0.7498 0.74981,-1.87451 -1.31216,-2.2494 -1.1247,-2.24941 -2.99921,-0.18745 -2.43686,2.24941 -0.98412,2.88205"
     id="path9656"
     transform="translate(-0.003)"
     sodipodi:nodetypes="cccccccccc" />
  <path
     style="display:inline;fill:#2857f7;fill-opacity:1;stroke:#000000;stroke-width:0.96319879;stroke-dasharray:none;stroke-opacity:1;font-variation-settings:normal;opacity:1;vector-effect:none;stroke-linecap:butt;stroke-linejoin:miter;stroke-miterlimit:10;stroke-dashoffset:0;-inkscape-stroke:none;stop-color:#000000;stop-opacity:1"
     d="m 447.27874,210.81689 2.71723,3.37997 2.45213,-0.53019 2.5184,1.65684 2.71723,-0.99411 0.26509,-2.71722 -2.38586,-0.13255 -3.7776,-2.45213 z"
     id="path11568" />
  <path
     style="display:inline;fill:#2857f7;fill-opacity:1;stroke:#000000;stroke-width:0.96319879;stroke-dasharray:none;stroke-opacity:1;font-variation-settings:normal;opacity:1;vector-effect:none;stroke-linecap:butt;stroke-linejoin:miter;stroke-miterlimit:10;stroke-dashoffset:0;-inkscape-stroke:none;stop-color:#000000;stop-opacity:1"
     d="m 462.05779,215.45606 1.98822,2.65095 5.50072,0.2651 1.78939,-3.0486 -6.42855,-1.19293 z"
     id="path11570" />
  <path
     style="display:inline;opacity:1;fill:#2857f7;fill-opacity:1;fill-rule:nonzero;stroke:#000000;stroke-width:0.96319879;stroke-linejoin:miter;stroke-miterlimit:10;stroke-dasharray:none;stroke-opacity:1;filter:url(#Rectangle_314-8);font-variation-settings:normal;vector-effect:none;stroke-linecap:butt;stroke-dashoffset:0;-inkscape-stroke:none;stop-color:#000000;stop-opacity:1"
     d="m 485.25362,230.23511 -0.86156,1.2592 0.59646,3.18115 -0.9941,2.31958 -1.92194,2.84977 2.84977,5.63327 -1.12666,4.0427 3.64506,3.31369 1.12666,0.59647 6.5611,-6.69366 8.28422,-3.51251 -3.18114,-6.42855 -13.71867,-6.75993 z"
     id="path11574" />
</g>
<g
   id="g5823_s_america"
   style="display:inline">
  <path
     id="Path_76"
     class="st2"
     d="m 547.1,212.8 -3.7,23.3 19.7,18.8 v 7 l -3.1,27.5 -5.9,31.7 4.8,19.1 h 10.4 l 21.6,-51.4 15.4,-19.4 10.1,-2 12.1,-27.8 -30.9,-13.3 -10.9,-13.9 -33.61797,-6.39118 c 0,0 -3.19856,3.83539 -5.98203,6.79118 z"
     style="display:inline;fill:#2857f7;stroke:#000000;stroke-miterlimit:10"
     sodipodi:nodetypes="cccccccccccccccc" />
</g>
<g
   id="g5032_n_america"
   style="display:inline">
  <path
     id="Path_75"
     class="st2"
     d="m 567.8,7 -16.4,18 32,14.1 10.7,40.9 12.4,-2.8 15.4,-16.8 21.5,-9.8 5.1,-34.7 9.4,-12.4 H 629.8 L 606.5,0 l -16.4,5.8 -8,2 z"
     style="display:inline;fill:#2857f7;stroke:#000000;stroke-miterlimit:10" />
  <path
     id="Path_74"
     class="st2"
     d="m 541,27.2 c -0.9,0.6 -3.4,2 -4.3,1.8 -0.9,-0.2 -3.7,-5.7 -3.7,-5.7 0,0 -5.7,8 -5.4,9.4 0.3,1.4 4.6,11.7 4.6,11.7 l 12.7,0.8 9.7,9.5 v 13.4 l -7.6,2.4 0.3,4.9 11.9,-0.8 9.8,10.8 6.8,-10 -8.8,-12 8.8,6 1.1,-10.1 -10.6,-6.1 -0.4,-6.8 -13.6,-12 -6.4,0.4 -2.7,-1.2 -0.5,-4.7 z"
     style="display:inline;fill:#2857f7;stroke:#000000;stroke-miterlimit:10" />
  <path
     id="Path_73"
     class="st2"
     d="m 509.1,24 -5.1,9.3 4.3,7.4 7.5,-4.1 -2,-6.2 z"
     style="display:inline;fill:#2857f7;stroke:#000000;stroke-miterlimit:10" />
  <path
     id="Path_72"
     class="st2"
     d="m 482.9,25 -6.4,7.3 4.1,7.5 1.7,2.7 -2.6,3.7 1.4,3.8 7.8,2.5 11.1,0.7 5.4,-1.8 1.5,-5.2 -8,-2.8 0.3,-11.9 -15.4,-3.9 -0.6,-1.7 z"
     style="display:inline;fill:#2857f7;stroke:#000000;stroke-miterlimit:10" />
  <path
     id="Path_71"
     class="st2"
     d="m 477.7,22.8 v 2.9 l -3.4,4.2 -1.8,1.9 1.1,7.6 -3.5,2.3 -5.7,-0.7 -3.4,-6.8 0.5,-7.4 3.7,-5.8 z"
     style="display:inline;fill:#2857f7;stroke:#000000;stroke-miterlimit:10" />
  <path
     id="Path_70"
     class="st2"
     d="m 437.7,49.1 -34.8,-10.4 -15.7,23 6.5,32.6 22.7,-9 31.7,5.9 19.9,35.1 v 32 l 20.2,21.9 v -15.4 l 12.6,25.8 46.3,22.2 c 0,0 0.10214,0.0121 6.16348,-6.57785 L 518.7,186.6 517,172.8 l 20.8,-0.8 7,12.4 2,-19.9 34,-43.9 11.5,-5.5 -18,-25.8 -9.3,6.2 -5.6,-14.1 -13.4,6.7 0.3,25.5 -30,-21.3 23.9,-21.1 -1.4,-25.5 -30.9,14.7 -7.7,-2.3 -13.1,-0.4 -30.7,-12.6 z"
     style="display:inline;fill:#2857f7;stroke:#000000;stroke-miterlimit:10"
     sodipodi:nodetypes="ccccccccccccccccccccccccccccccccc" />
</g>

			
			
			
			
			
			
			
			
			
			
			
			
			
			
			<g
   id="g5799_ocean"
   style="display:inline">
  <path
     id="Path_64"
     class="st2"
     d="m 299.8,247.5 -4.4,15.2 -8.7,-1.4 1.3,-12.4 -8.1,-0.3 -32,19.9 1.1,23.9 32.6,-2.9 13.9,12.6 H 315 l 5.8,-23 z"
     style="fill:#2857f7;stroke:#000000;stroke-miterlimit:10" />
  <path
     id="Path_67"
     class="st2"
     d="m 354.2,308.5 -3.6,-2.8 -10.4,13.3 4.1,3.6 -2.1,2.7 c 0,0 3.1,0.3 3.4,0 0.3,-0.3 11.9,-15.2 11.9,-15.2 z"
     style="display:inline;fill:#2857f7;stroke:#000000;stroke-miterlimit:10" />
  <path
     id="Path_66"
     class="st2"
     d="m 357.5,296.4 -3.5,2.1 -0.8,7.2 4.3,1.8 4.3,-5.4 z"
     style="display:inline;fill:#2857f7;stroke:#000000;stroke-miterlimit:10" />
  <path
     id="Path_65"
     class="st4"
     d="m 308.8,305.7 -7.5,1.1 2.1,14.5 5.4,-2.8 -1.7,-5.5 2.2,-2.9 z"
     style="display:inline;fill:#2857f7;fill-opacity:1;stroke:#000000;stroke-miterlimit:10" />
  <path
     id="Path_63"
     class="st2"
     d="m 315.4,246.1 -9.4,-11.4 -6.9,-2.2 -2,9.8 9.8,8.1 5.6,4.2 4.1,-1 -8,-7.5 z"
     style="display:inline;fill:#2857f7;stroke:#000000;stroke-miterlimit:10" />
</g>
<g
   id="g5808_asia"
   style="display:inline">
  <path
     id="Path_62"
     class="st3"
     d="m 299.1,232.5 -9,-6 -11.2,0.7 2.8,8.6 9.7,2.7 c 0,0 0.8,5.6 1.3,5.6 0.5,0 4.5,-1.8 4.5,-1.8 z"
     style="fill:#fbd03a;stroke:#000000;stroke-miterlimit:10" />
  <path
     id="Path_49"
     class="st3"
     d="M 352.4,44.9 330.5,48.5 297,31.9 295.7,41.4 273,38.6 266.5,28.3 H 247.1 L 240.2,22 233.5,28.7 236.7,9.3 217.8,6.6 180.7,31.7 159.3,54 147.3,51.4 107.5,76.3 96.2,61.8 111.8,66.4 V 55 l -24,-16 -8,5.1 0.3,0.6 20.3,36.7 -4.6,9.1 h 11.8 l 2.1,4.2 -5.1,5.5 17.3,8.4 6.3,-2.9 2.1,8.4 -5.9,6.7 -10.9,16 6.3,9.7 2.9,7.6 0.8,6.3 22.7,28.6 h 26.1 l 9.3,23.2 21.5,-27.8 10.1,12.6 3.4,-0.8 2.3,4.8 -1.5,12.6 4.4,3.4 v 4 l 2.3,2.5 4.6,2.9 1.7,-4.2 -2.3,-5.1 -5.9,-7.4 1.9,-8 7.6,9.3 7.6,-10.1 -7.4,-12.4 h 15.4 l 16.4,-17.3 -7.8,-15 5.1,-6.3 6.3,9.3 6.5,1.3 -1.3,-10.7 12.6,-7.8 9.7,-27.8 -9.7,-6.3 14.5,-13.1 20.6,1.3 8.2,-11.2 1.1,1.1 -12,16.6 9.3,19.6 c 0,0 8.2,-25.9 16,-31 5.5,-3.4 11.3,-6.5 17.3,-9.1 l 1.9,-0.8 v -8.4 l 16.4,2.9 1.7,-12 z"
     style="display:inline;fill:#fbd03a;stroke:#000000;stroke-miterlimit:10" />
  <path
     id="Path_51"
     class="st3"
     d="m 190.6,213.7 -2.6,-4.1 -3.7,3.6 2,6 h 4.3 z"
     style="display:inline;fill:#fbd03a;stroke:#000000;stroke-miterlimit:10" />
  <path
     id="Path_52"
     class="st3"
     d="m 217.3,215.8 -4.4,3.7 2.7,7.6 14.4,12.6 4,-8.6 -12.1,-7.4 -3,-4.9 z"
     style="display:inline;fill:#fbd03a;stroke:#000000;stroke-miterlimit:10" />
  <path
     id="Path_53"
     class="st3"
     d="m 252.9,213 5.7,4.8 -2.5,3.9 0.2,4.6 c 0,0 -4,4.1 -4.1,4.3 -0.1,0.2 -3,4 -3.7,4 -0.7,0 -4.8,-0.6 -5.3,-0.6 -0.9,-0.4 -1.7,-1 -2.5,-1.6 0,0 -1.5,-2.5 -1.7,-2.9 -0.2,-0.4 -1.7,-3.2 -1.7,-3.2 l 3.2,-4.5 5.2,0.8 z"
     style="display:inline;fill:#fbd03a;stroke:#000000;stroke-miterlimit:10" />
  <path
     id="Path_54"
     class="st3"
     d="m 247.9,243.7 -1.2,-5.3 c 0,0 -7.9,-2.7 -8.1,-2.7 -0.2,0 -6.2,4.6 -6.2,4.6 0,0 -1.8,2.7 -0.8,2.9 1,0.2 10.7,2.9 10.7,2.9 z"
     style="display:inline;fill:#fbd03a;stroke:#000000;stroke-miterlimit:10" />
  <path
     id="Path_55"
     class="st3"
     d="m 264.1,228.4 2.7,-2.5 -3.8,-1.3 -4.4,2.9 -2.8,3.3 c 0.1,1.6 0.3,3.1 0.6,4.7 0.2,0.1 4.3,1.8 4.9,1.2 1.3,-1.2 2.5,-2.5 3.6,-3.8 0,-0.2 -0.8,-4.5 -0.8,-4.5 z"
     style="display:inline;fill:#fbd03a;stroke:#000000;stroke-miterlimit:10" />
  <path
     id="Path_56"
     class="st3"
     d="m 270.4,208.6 -7.1,1.8 c 0,0 2,6.9 2.2,6.9 0.2,0 5.7,-2.5 5.7,-2.5 z"
     style="display:inline;fill:#fbd03a;stroke:#000000;stroke-miterlimit:10" />
  <path
     id="Path_57"
     class="st3"
     d="m 264.7,194.6 c -0.4,0 -8,2 -8,2 0,0 -1.2,2.5 0,2.9 2.1,0.8 4.1,1.8 6.1,2.9 1.6,1 3.3,1.8 5.1,2.6 z"
     style="display:inline;fill:#fbd03a;stroke:#000000;stroke-miterlimit:10" />
  <path
     id="Path_58"
     class="st3"
     d="m 263.3,179.1 c -0.3,-0.1 -5.8,4.6 -5.8,4.6 0,0 -1.1,4.4 -0.8,4.6 0.3,0.2 7.4,0 7.4,0 z"
     style="display:inline;fill:#fbd03a;stroke:#000000;stroke-miterlimit:10" />
  <path
     id="Path_59"
     class="st3"
     d="m 300.8,113 -2.9,-2.7 c 0,0 -0.4,1.4 -0.5,2 -0.1,0.6 0.7,7.8 0.7,8.4 0,0.6 0.2,8.4 0.2,8.4 0,0 -0.2,2.2 0.8,1.7 1,-0.5 4,-0.5 4.1,-1.8 -0.1,-2.2 -0.4,-4.3 -0.7,-6.4 -0.1,-0.8 0.3,-5.6 0.2,-6.1 -0.6,-1.2 -1.2,-2.3 -1.9,-3.5 z"
     style="display:inline;fill:#fbd03a;stroke:#000000;stroke-miterlimit:10" />
  <path
     id="Path_60"
     class="st3"
     d="m 302.5,136.1 h -4.7 c -1,0.5 -2,1.1 -2.8,1.8 -0.4,0.6 -0.9,2.4 -0.5,3.1 1.3,1.1 2.6,2.2 4,3.2 0,0 3.7,0.1 4.8,-0.8 1.1,-0.9 3.6,-2.7 3.1,-3.6 -0.5,-0.9 -3.9,-3.7 -3.9,-3.7 z"
     style="display:inline;fill:#fbd03a;stroke:#000000;stroke-miterlimit:10" />
  <path
     id="Path_61"
     class="st3"
     d="m 294.2,143.7 c 0,0 3.6,1.9 3.6,2.2 0,0.3 -0.4,2.7 -0.5,4.3 0,1.9 0.2,3.9 0.5,5.8 -0.1,1.6 -0.3,3.2 -0.5,4.7 l -7.4,2.7 c -0.6,0.8 -1.2,1.6 -2,2.2 -0.8,0.7 -1.7,1.2 -2.6,1.5 -1.4,0.3 -1.7,-0.3 -3.4,0.7 -1.7,1 -1.3,2.1 -2.8,2 -1.5,-0.1 -3.4,0 -3.9,-0.9 -0.5,-0.9 -1.5,-4.9 -0.8,-5.3 0.7,-0.4 6.4,-5.4 6.4,-5.4 l 8,-3.4 c 0,0 6.3,-3.9 6.2,-4.2 -0.1,-0.3 -0.8,-6.9 -0.8,-6.9 z"
     style="display:inline;fill:#fbd03a;stroke:#000000;stroke-miterlimit:10" />
</g>

			
			
			
			
			
			<g
   id="g5795_africa"
   style="display:inline">
  <path
     id="Path_50"
     class="st2"
     d="m 56.6,153.1 -32.4,10.1 -12.4,41.3 20,16.8 14.7,-5.9 10.1,4 v 15 l 9.1,13.9 -2.3,25.3 c 0,0 9.7,10.7 10.3,19.4 l 20.4,-8.2 c 0,0 9.3,-22.5 18.3,-29.1 l 1.1,-24.2 17.3,-17.9 V 205 l -12.2,2.1 -16.6,-29.5 -1.3,-1.5 2.8,-8.2 -24.5,-1.4 -2.7,3.6 z"
     style="display:inline;fill:#2857f7;stroke:#000000;stroke-miterlimit:10" />
  <path
     id="Path_68"
     class="st2"
     d="m 130.2,248.4 4.1,3.8 -6,20 -6.1,1.4 c 0,0 -3.8,-2.3 -3.8,-2.7 0.9,-1.8 1.9,-3.5 3.1,-5.2 l 0.6,-5.7 -0.1,-4.3 4.9,-1.6 z"
     style="display:inline;fill:#2857f7;stroke:#000000;stroke-miterlimit:10" />
</g>

			<g
   id="g5784_europe"
   style="display:inline;fill:#2857f7;stroke:#000000;stroke-miterlimit:10">
  <path
     id="Path_48"
     class="st2"
     d="m 122.7,154 -2.9,-7.6 -6.3,-9.7 10.9,-16 5.9,-6.7 -2.1,-8.4 -6.3,2.9 -17.3,-8.4 5.1,-5.5 -2.1,-4.2 H 95.7 l 4.6,-9.1 -20.2,-36.6 -0.8,-0.4 -19.5,19 v 6.9 l -12.7,15.6 3.8,11.4 5.9,1.1 3.2,-4.4 5.5,13.7 7.5,-11.1 -0.4,-7.8 -2.5,-8.6 8.2,-12.4 5.7,2.1 -4.2,9.9 v 9.5 l 13.7,2.5 -9.3,2.7 -7.6,15.8 -8.2,-1.7 -6.9,1.7 -3.6,-4.4 -3.6,-2.5 -2.1,1.5 -14.3,17.7 c 0,0 -1.3,-7.6 -1.3,-8.2 v -13.7 l -3.6,-4.3 -4.4,1.1 -1.3,2.3 4,4 -2.5,20 c 0,0 1.7,4.2 2.7,4.6 2,1.2 4,2.6 5.9,4 l -2.9,2.1 -2.3,2.3 h -4.8 l -3.2,0.8 1.5,18.7 12.8,-2.7 1.3,-8.6 8,-1.7 4.2,-4.2 6.8,0.2 12.7,13.5 c 0,0 2.1,-4.6 1.9,-5.3 -0.2,-0.7 -10.7,-12.2 -10.7,-12.2 h 4 l 7.6,3.4 4.4,12.8 12.4,-8.2 2.3,-10.5 2.1,9.5 -5.7,9.3 -2.5,4.8 h 15.6 l 2.9,1.1 -2.9,12.8 -2.3,5.9 20.4,23.8 8.8,1.3 16.4,-12.2 -22.7,-28.6 z"
     style="fill:#2857f7;stroke:#000000;stroke-miterlimit:10" />
  <path
     id="Path_69"
     class="st2"
     d="m 10.4,65.4 c 0,0 6.6,5.5 6,6 -0.6,0.5 -6,6.3 -6,6.3 L 0,76.8 V 71 Z"
     style="display:inline;fill:#2857f7;stroke:#000000;stroke-miterlimit:10" />
</g>

			
			
			
			
			
			
			
		<path
   style="display:inline;fill:#265bf9;fill-opacity:1;stroke:#000000;stroke-width:1.3;stroke-dasharray:none;stroke-opacity:1;filter:url(#Rectangle_314-8)"
   d="m 471.53495,218.57093 1.85566,3.24741 1.65685,1.59057 1.52429,2.65095 6.89248,-2.58467 -1.06038,-3.77761 -4.10898,-0.86156 -2.5184,-1.19293 -1.2592,-0.79528 z"
   id="path11572"
   transform="matrix(1.0286594,0,0,1.0478438,-0.4947,-0.51870557)" />
</g>

	</g>
    <g
       id="Group_Title"
       data-name="Group 190"
       style="display:inline">
      <g
         id="Group_189"
         data-name="Group 189">
        <g
           transform="matrix(1.2573697,0,0,1,381.9421,1612)"
           filter="url(#Rectangle_27)"
           id="g325"
           style="display:inline">
          <g
             id="Rectangle_27-9"
             data-name="Rectangle 27"
             transform="translate(460.79,101.75)"
             fill="#ffffff"
             stroke="#000081"
             stroke-width="1">
            <rect
               width="58"
               height="20"
               rx="10"
               stroke="none"
               id="rect320"
               x="0"
               y="0" />
            <rect
               x="0.5"
               y="0.5"
               width="57"
               height="19"
               rx="9.5"
               fill="none"
               id="rect322" />
          </g>
        </g>
        <text
           id="北アメリカ"
           font-size="12"
           font-family="YuGothic-Medium, Yu Gothic"
           font-weight="500"
           style="font-style:normal;font-variant:normal;font-weight:normal;font-stretch:normal;font-size:12px;font-family:YuGothic-Medium, 'Yu Gothic';-inkscape-font-specification:'YuGothic-Medium, Yu Gothic, Normal';font-variant-ligatures:normal;font-variant-caps:normal;font-variant-numeric:normal;font-variant-east-asian:normal"
           x="966.78998"
           y="1727.75"><tspan
             sodipodi:role="line"
             id="tspan1164"
             x="966.78998"
             y="1727.75">北アメリカ</tspan></text>
      </g>
      <g
         id="Group_22"
         data-name="Group 22"
         transform="matrix(1,0,0,0.99967228,-46.350995,157.86156)">
        <g
           transform="matrix(0.76621618,0,0,1.0126094,522.17453,1469.093)"
           filter="url(#Rectangle_27-2)"
           id="g336">
          <g
             id="Rectangle_27-10"
             data-name="Rectangle 27"
             transform="translate(87.79,91.75)"
             fill="#ffffff"
             stroke="#000081"
             stroke-width="1">
            <rect
               width="74"
               height="20"
               rx="10"
               stroke="none"
               id="rect331"
               x="0"
               y="0" />
            <rect
               x="0.5"
               y="0.5"
               width="73"
               height="19"
               rx="9.5"
               fill="none"
               id="rect333" />
          </g>
        </g>
        <text
           id="欧州"
           data-name="北欧/東欧"
           font-size="12"
           font-family="YuGothic-Medium, Yu Gothic"
           font-weight="500"
           style="font-style:normal;font-variant:normal;font-weight:normal;font-stretch:normal;font-size:12px;font-family:YuGothic-Medium, 'Yu Gothic';-inkscape-font-specification:'YuGothic-Medium, Yu Gothic, Normal';font-variant-ligatures:normal;font-variant-caps:normal;font-variant-numeric:normal;font-variant-east-asian:normal"
           inkscape:label="#欧州"
           x="606.64221"
           y="1576.9003"><tspan
             sodipodi:role="line"
             id="tspan2847"
             x="606.64221"
             y="1576.9003">欧州</tspan></text>
      </g>
      <g
         id="Group_131"
         data-name="Group 131"
         transform="translate(-55.651,270.75)">
        <g
           transform="translate(563.65,1341.25)"
           filter="url(#Rectangle_27-4)"
           id="g358">
          <g
             id="Rectangle_27-12"
             data-name="Rectangle 27"
             transform="translate(25.79,220.75)"
             fill="#ffffff"
             stroke="#000081"
             stroke-width="1">
            <rect
               width="74"
               height="20"
               rx="10"
               stroke="none"
               id="rect353"
               x="0"
               y="0" />
            <rect
               x="0.5"
               y="0.5"
               width="73"
               height="19"
               rx="9.5"
               fill="none"
               id="rect355" />
          </g>
        </g>
        <text
           id="アフリカ"
           transform="translate(624.442,1576)"
           font-size="12"
           font-family="YuGothic-Medium, Yu Gothic"
           font-weight="500"
           style="font-style:normal;font-variant:normal;font-weight:normal;font-stretch:normal;font-size:12px;font-family:YuGothic-Medium, 'Yu Gothic';-inkscape-font-specification:'YuGothic-Medium, Yu Gothic, Normal';font-variant-ligatures:normal;font-variant-caps:normal;font-variant-numeric:normal;font-variant-east-asian:normal"><tspan
             x="-24"
             y="0"
             id="tspan360"
             style="font-style:normal;font-variant:normal;font-weight:normal;font-stretch:normal;font-size:12px;font-family:YuGothic-Medium, 'Yu Gothic';-inkscape-font-specification:'YuGothic-Medium, Yu Gothic, Normal';font-variant-ligatures:normal;font-variant-caps:normal;font-variant-numeric:normal;font-variant-east-asian:normal">アフリカ</tspan></text>
      </g>
      <g
         id="Group_132"
         data-name="Group 132"
         transform="translate(133.349,311.75)"
         style="display:inline">
        <g
           transform="translate(374.65,1300.25)"
           filter="url(#Rectangle_27-5)"
           id="g369">
          <g
             id="Rectangle_27-13"
             data-name="Rectangle 27"
             transform="translate(214.79,261.75)"
             fill="#ffffff"
             stroke="#000081"
             stroke-width="1">
            <rect
               width="74"
               height="20"
               rx="10"
               stroke="none"
               id="rect364"
               x="0"
               y="0" />
            <rect
               x="0.5"
               y="0.5"
               width="73"
               height="19"
               rx="9.5"
               fill="none"
               id="rect366" />
          </g>
        </g>
        <text
           id="オセオニア"
           transform="translate(626.442,1576)"
           font-size="12px"
           font-family="YuGothic-Medium, 'Yu Gothic'"
           font-weight="500"><tspan
             x="-30"
             y="0"
             id="tspan371">オセオニア</tspan></text>
      </g>
      <g
         id="Group_133"
         data-name="Group 133"
         transform="translate(261.666,299.75)">
        <g
           transform="translate(246.33,1312.25)"
           filter="url(#Rectangle_27-6)"
           id="g380">
          <g
             id="Rectangle_27-14"
             data-name="Rectangle 27"
             transform="translate(346,249.75)"
             fill="#ffffff"
             stroke="#000081"
             stroke-width="1">
            <rect
               width="155.683"
               height="20"
               rx="10"
               stroke="none"
               id="rect375"
               x="0"
               y="0" />
            <rect
               x="0.5"
               y="0.5"
               width="154.683"
               height="19"
               rx="9.5"
               fill="none"
               id="rect377" />
          </g>
        </g>
        <text
           id="ハワイ_グアム_サイパン"
           data-name="ハワイ/グアム/サイパン"
           transform="translate(670.334,1576)"
           font-size="12"
           font-family="YuGothic-Medium, Yu Gothic"
           font-weight="500"
           style="font-style:normal;font-variant:normal;font-weight:normal;font-stretch:normal;font-size:12px;font-family:YuGothic-Medium, 'Yu Gothic';-inkscape-font-specification:'YuGothic-Medium, Yu Gothic, Normal';font-variant-ligatures:normal;font-variant-caps:normal;font-variant-numeric:normal;font-variant-east-asian:normal"><tspan
             x="-65.771004"
             y="0"
             id="tspan382"
             style="font-style:normal;font-variant:normal;font-weight:normal;font-stretch:normal;font-size:12px;font-family:YuGothic-Medium, 'Yu Gothic';-inkscape-font-specification:'YuGothic-Medium, Yu Gothic, Normal';font-variant-ligatures:normal;font-variant-caps:normal;font-variant-numeric:normal;font-variant-east-asian:normal">ハワイ/グアム/サイパン</tspan></text>
      </g>
      <g
         id="Group_134"
         data-name="Group 134"
         transform="translate(443.349,284.75)"
         style="display:inline">
        <g
           transform="matrix(1.1810345,0,0,0.99209706,-30.174555,1329.1053)"
           filter="url(#Rectangle_27-8)"
           id="g402">
          <g
             id="Rectangle_27-16"
             data-name="Rectangle 27"
             transform="translate(523.79,234.75)"
             fill="#ffffff"
             stroke="#000081"
             stroke-width="1">
            <rect
               width="58"
               height="20"
               rx="10"
               stroke="none"
               id="rect397"
               x="0"
               y="0" />
            <rect
               x="0.5"
               y="0.5"
               width="57"
               height="19"
               rx="9.5"
               fill="none"
               id="rect399" />
          </g>
        </g>
        <text
           id="南アメリカ"
           font-size="12"
           font-family="YuGothic-Medium, Yu Gothic"
           font-weight="500"
           style="font-style:normal;font-variant:normal;font-weight:normal;font-stretch:normal;font-size:12px;font-family:YuGothic-Medium, 'Yu Gothic';-inkscape-font-specification:'YuGothic-Medium, Yu Gothic, Normal';font-variant-ligatures:normal;font-variant-caps:normal;font-variant-numeric:normal;font-variant-east-asian:normal"
           x="593.34198"
           y="1576"><tspan
             sodipodi:role="line"
             id="tspan1166"
             x="593.34198"
             y="1576">南アメリカ</tspan></text>
      </g>
      <g
         id="Group_26"
         data-name="Group 26"
         transform="translate(170.29,56.75)"
         style="display:inline">
        <g
           id="Rectangle_29"
           data-name="Rectangle 29"
           transform="translate(538,1619.25)"
           fill="#000081"
           stroke="#000081"
           stroke-width="1">
          <rect
             width="61"
             height="20"
             rx="10"
             stroke="none"
             id="rect408"
             x="0"
             y="0"
             style="font-variation-settings:normal;opacity:1;vector-effect:none;fill:#ffffff;fill-opacity:1;stroke:none;stroke-width:1.08245;stroke-linecap:butt;stroke-linejoin:miter;stroke-miterlimit:4;stroke-dasharray:none;stroke-dashoffset:0;stroke-opacity:1;-inkscape-stroke:none;stop-color:#000000;stop-opacity:1" />
          <rect
             x="0.5"
             y="0.5"
             width="60"
             height="19"
             rx="9.5"
             fill="none"
             id="rect410"
             style="font-variation-settings:normal;opacity:1;vector-effect:none;fill:none;fill-opacity:1;stroke:#000081;stroke-width:1.08245;stroke-linecap:butt;stroke-linejoin:miter;stroke-miterlimit:4;stroke-dasharray:none;stroke-dashoffset:0;stroke-opacity:1;-inkscape-stroke:none;stop-color:#000000;stop-opacity:1" />
        </g>
        <text
           id="アジア"
           transform="translate(569,1633.25)"
           fill="#ffffff"
           font-size="12px"
           font-family="YuGothic-Medium, 'Yu Gothic'"
           font-weight="500"
           style="font-style:normal;font-variant:normal;font-weight:normal;font-stretch:normal;font-size:12px;line-height:normal;font-family:YuGothic-Medium, 'Yu Gothic';-inkscape-font-specification:'YuGothic-Medium, Yu Gothic, Normal';font-variant-ligatures:normal;font-variant-position:normal;font-variant-caps:normal;font-variant-numeric:normal;font-variant-alternates:normal;font-variant-east-asian:normal;font-feature-settings:normal;font-variation-settings:normal;text-indent:0;text-align:start;text-decoration-line:none;text-decoration-style:solid;text-decoration-color:#000000;letter-spacing:normal;word-spacing:normal;text-transform:none;writing-mode:lr-tb;direction:ltr;text-orientation:mixed;dominant-baseline:auto;baseline-shift:baseline;white-space:normal;opacity:1;vector-effect:none;fill:#000000;fill-opacity:1;stroke-width:1;stroke-linecap:butt;stroke-linejoin:miter;stroke-miterlimit:4;stroke-dasharray:none;stroke-dashoffset:0;stroke-opacity:1;-inkscape-stroke:none;stop-color:#000000;stop-opacity:1"><tspan
             x="-18"
             y="0"
             id="tspan413"
             style="font-style:normal;font-variant:normal;font-weight:normal;font-stretch:normal;font-size:12px;line-height:normal;font-family:YuGothic-Medium, 'Yu Gothic';-inkscape-font-specification:'YuGothic-Medium, Yu Gothic, Normal';font-variant-ligatures:normal;font-variant-position:normal;font-variant-caps:normal;font-variant-numeric:normal;font-variant-alternates:normal;font-variant-east-asian:normal;font-feature-settings:normal;font-variation-settings:normal;text-indent:0;text-align:start;text-decoration-line:none;text-decoration-style:solid;text-decoration-color:#000000;letter-spacing:normal;word-spacing:normal;text-transform:none;writing-mode:lr-tb;direction:ltr;text-orientation:mixed;dominant-baseline:auto;baseline-shift:baseline;white-space:normal;vector-effect:none;fill:#000000;fill-opacity:1;stroke-width:1;stroke-linecap:butt;stroke-linejoin:miter;stroke-miterlimit:4;stroke-dasharray:none;stroke-dashoffset:0;stroke-opacity:1;-inkscape-stroke:none;stop-color:#000000;stop-opacity:1">アジア</tspan></text>
      </g>
    </g>
  </g>
</svg>
