<?xml version="1.0" encoding="utf-8"?>
<!-- Generator: Adobe Illustrator 22.1.0, SVG Export Plug-In . SVG Version: 6.00 Build 0)  -->
<svg version="1.1" id="Layer_1" xmlns="http://www.w3.org/2000/svg" xmlns:xlink="http://www.w3.org/1999/xlink" x="0px" y="0px"
	 viewBox="0 0 661.3 348.7" style="enable-background:new 0 0 661.3 348.7;" xml:space="preserve">
<style type="text/css">
	.st0{fill:#FFFFFF;}
	.st1{fill:#000081;}
	.st2{font-family:'YuGothic-Medium';}
	.st3{font-size:12px;}
</style>
<g>
	<path class="st0" d="M488.5,108.4h38c5.5,0,10,4.5,10,10l0,0c0,5.5-4.5,10-10,10h-38c-5.5,0-10-4.5-10-10l0,0
		C478.5,112.9,483,108.4,488.5,108.4z"/>
	<g>
		<path class="st1" d="M526.5,128.4h-38c-5.5,0-10-4.5-10-10s4.5-10,10-10h38c5.5,0,10,4.5,10,10S532,128.4,526.5,128.4z
			 M488.5,109.4c-5,0-9,4-9,9s4,9,9,9h38c5,0,9-4,9-9s-4-9-9-9H488.5z"/>
	</g>
	<text transform="matrix(1 0 0 1 495.5132 122.4019)" class="st2 st3">北米</text>
	<g>
		<path class="st0" d="M115.5,98.4h54c5.5,0,10,4.5,10,10l0,0c0,5.5-4.5,10-10,10h-54c-5.5,0-10-4.5-10-10l0,0
			C105.5,102.9,110,98.4,115.5,98.4z"/>
		<g>
			<path class="st1" d="M169.5,118.4h-54c-5.5,0-10-4.5-10-10s4.5-10,10-10h54c5.5,0,10,4.5,10,10S175,118.4,169.5,118.4z
				 M115.5,99.4c-5,0-9,4-9,9s4,9,9,9h54c5,0,9-4,9-9s-4-9-9-9H115.5z"/>
		</g>
		<text transform="matrix(1 0 0 1 115.2532 112.4019)" class="st2 st3">北欧/東欧</text>
	</g>
	<g>
		<path class="st0" d="M36.5,133.4h54c5.5,0,10,4.5,10,10l0,0c0,5.5-4.5,10-10,10h-54c-5.5,0-10-4.5-10-10l0,0
			C26.5,137.9,31,133.4,36.5,133.4z"/>
		<g>
			<path class="st1" d="M90.5,153.4h-54c-5.5,0-10-4.5-10-10s4.5-10,10-10h54c5.5,0,10,4.5,10,10S96,153.4,90.5,153.4z M36.5,134.4
				c-5,0-9,4-9,9s4,9,9,9h54c5,0,9-4,9-9s-4-9-9-9H36.5z"/>
		</g>
		<text transform="matrix(1 0 0 1 36.2532 147.4019)" class="st2 st3">南欧/西欧</text>
	</g>
	<g>
		<path class="st0" d="M53.5,227.4h54c5.5,0,10,4.5,10,10l0,0c0,5.5-4.5,10-10,10h-54c-5.5,0-10-4.5-10-10l0,0
			C43.5,231.9,48,227.4,53.5,227.4z"/>
		<g>
			<path class="st1" d="M107.5,247.4h-54c-5.5,0-10-4.5-10-10s4.5-10,10-10h54c5.5,0,10,4.5,10,10S113,247.4,107.5,247.4z
				 M53.5,228.4c-5,0-9,4-9,9s4,9,9,9h54c5,0,9-4,9-9s-4-9-9-9H53.5z"/>
		</g>
		<text transform="matrix(1 0 0 1 59.3475 241.4019)" class="st2 st3">アフリカ</text>
	</g>
	<g>
		<path class="st0" d="M242.5,268.4h54c5.5,0,10,4.5,10,10l0,0c0,5.5-4.5,10-10,10h-54c-5.5,0-10-4.5-10-10l0,0
			C232.5,272.9,237,268.4,242.5,268.4z"/>
		<g>
			<path class="st1" d="M296.5,288.4h-54c-5.5,0-10-4.5-10-10s4.5-10,10-10h54c5.5,0,10,4.5,10,10S302,288.4,296.5,288.4z
				 M242.5,269.4c-5,0-9,4-9,9s4,9,9,9h54c5,0,9-4,9-9s-4-9-9-9H242.5z"/>
		</g>
		<text transform="matrix(1 0 0 1 240.8475 282.4019)" class="st2 st3">オセオニア</text>
	</g>
	<g>
		<path class="st0" d="M373.7,256.4h135.7c5.5,0,10,4.5,10,10l0,0c0,5.5-4.5,10-10,10H373.7c-5.5,0-10-4.5-10-10l0,0
			C363.7,260.9,368.2,256.4,373.7,256.4z"/>
		<g>
			<path class="st1" d="M509.4,276.4H373.7c-5.5,0-10-4.5-10-10s4.5-10,10-10h135.7c5.5,0,10,4.5,10,10S514.9,276.4,509.4,276.4z
				 M373.7,257.4c-5,0-9,4-9,9s4,9,9,9h135.7c5,0,9-4,9-9s-4-9-9-9H373.7z"/>
		</g>
		<text transform="matrix(1 0 0 1 379.4521 270.4019)" class="st2 st3">ハワイ/グアム/サイパン</text>
	</g>
	<g>
		<path class="st0" d="M140.5,166.4h38c5.5,0,10,4.5,10,10l0,0c0,5.5-4.5,10-10,10h-38c-5.5,0-10-4.5-10-10l0,0
			C130.5,170.9,135,166.4,140.5,166.4z"/>
		<g>
			<path class="st1" d="M178.5,186.4h-38c-5.5,0-10-4.5-10-10s4.5-10,10-10h38c5.5,0,10,4.5,10,10S184,186.4,178.5,186.4z
				 M140.5,167.4c-5,0-9,4-9,9s4,9,9,9h38c5,0,9-4,9-9s-4-9-9-9H140.5z"/>
		</g>
		<text transform="matrix(1 0 0 1 141.5142 180.4019)" class="st2 st3">中近東</text>
	</g>
	<g>
		<path class="st0" d="M551.5,241.4h38c5.5,0,10,4.5,10,10l0,0c0,5.5-4.5,10-10,10h-38c-5.5,0-10-4.5-10-10l0,0
			C541.5,245.9,546,241.4,551.5,241.4z"/>
		<g>
			<path class="st1" d="M589.5,261.4h-38c-5.5,0-10-4.5-10-10c0-5.5,4.5-10,10-10h38c5.5,0,10,4.5,10,10
				C599.5,256.9,595,261.4,589.5,261.4z M551.5,242.4c-5,0-9,4-9,9c0,5,4,9,9,9h38c5,0,9-4,9-9c0-5-4-9-9-9H551.5z"/>
		</g>
		<text transform="matrix(1 0 0 1 552.5142 255.4019)" class="st2 st3">中南米</text>
	</g>
	<g>
		<path class="st1" d="M228,70.7h41c5.5,0,10,4.5,10,10l0,0c0,5.5-4.5,10-10,10h-41c-5.5,0-10-4.5-10-10l0,0
			C218,75.1,222.5,70.7,228,70.7z"/>
		<g>
			<path class="st1" d="M269,90.7h-41c-5.5,0-10-4.5-10-10s4.5-10,10-10h41c5.5,0,10,4.5,10,10S274.5,90.7,269,90.7z M228,71.7
				c-5,0-9,4-9,9s4,9,9,9h41c5,0,9-4,9-9s-4-9-9-9H228z"/>
		</g>
		<text transform="matrix(1 0 0 1 232.3464 84.6519)" class="st0 st2 st3">アジア</text>
	</g>
</g>
</svg>
