<?xml version="1.0" encoding="utf-8"?>
<!-- Generator: Adobe Illustrator 22.1.0, SVG Export Plug-In . SVG Version: 6.00 Build 0)  -->
<svg version="1.1" id="Layer_1" xmlns="http://www.w3.org/2000/svg" xmlns:xlink="http://www.w3.org/1999/xlink" x="0px" y="0px"
	 viewBox="0 0 32.1 37" style="enable-background:new 0 0 32.1 37;" xml:space="preserve">
<style type="text/css">
	.st0{fill:none;}
	.st1{fill:#162566;}
</style>
<g id="Group_64" transform="translate(-200.689 679.058)">
	<path id="Path_4" class="st0" d="M206-671.1h6.4c2.2,0,4.3,0,6.5,0c0.5,0.1,1-0.3,1.1-0.8c0-0.1,0-0.2,0-0.2c0-0.5,0-1,0-1.6
		c0.1-0.5-0.3-1-0.8-1c-0.1,0-0.1,0-0.2,0c-4.3,0-8.7,0-13,0c-0.5-0.1-1,0.3-1,0.8c0,0.1,0,0.1,0,0.2c0,0.5,0,1,0,1.5
		C204.8-671.4,205.2-671.1,206-671.1z"/>
	<path id="Path_5" class="st0" d="M207-654.9c-0.2,0-0.4,0-0.6,0l0,0c-0.2,0-0.4,0-0.6,0c-0.5,0-0.9,0.4-0.9,0.8c0,0,0,0,0,0
		c0,0.3,0,0.7,0,1c0,0.5,0.4,0.8,0.9,0.8c0.4,0,0.9,0,1.3,0c0.5,0,0.9-0.4,0.9-0.9c0-0.3,0-0.6,0-1C207.9-654.6,207.5-655,207-654.9
		C207-654.9,207-654.9,207-654.9z"/>
	<path id="Path_6" class="st0" d="M207-660.4c-0.4,0-0.8,0-1.3,0c-0.5,0-0.9,0.4-0.9,0.8c0,0.3,0,0.7,0,1c0,0.5,0.4,0.9,0.9,0.8
		c0.2,0,0.4,0,0.6,0c0.2,0,0.4,0,0.6,0c0.5,0,0.9-0.4,0.9-0.9c0-0.3,0-0.6,0-1C207.9-660,207.5-660.4,207-660.4z"/>
	<path id="Path_7" class="st0" d="M213.2-654c0.1-0.3,0.2-0.6,0.3-0.8c-0.1,0-0.2-0.1-0.3-0.1c-0.2,0-0.5,0-0.7,0l0,0
		c-0.2,0-0.5,0-0.7,0c-0.5,0-0.9,0.4-0.9,0.9c0,0.3,0,0.6,0,0.9c0,0.5,0.4,0.9,0.9,0.9c0.4,0,0.8,0,1.1,0c0-0.1,0-0.3,0.1-0.4
		C213-653.1,213.1-653.6,213.2-654z"/>
	<path id="Path_8" class="st0" d="M218-660.4l-0.2,0c-0.4,0-0.8,0.3-0.8,0.7c0,0,0.1-0.1,0.1-0.1C217.4-660,217.7-660.2,218-660.4z"
		/>
	<path id="Path_9" class="st0" d="M219.2-665.8c-0.4,0-0.9,0-1.3,0c-0.5,0-0.9,0.4-0.9,0.9c0,0,0,0,0,0c0,0.3,0,0.6,0,0.9
		c0,0.5,0.4,0.9,0.9,0.9c0,0,0,0,0,0c0.2,0,0.4,0,0.6,0l0,0c0.2,0,0.5,0,0.7,0c0.5,0,0.9-0.4,0.9-0.9c0-0.3,0-0.6,0-0.9
		C220.1-665.4,219.7-665.8,219.2-665.8C219.2-665.8,219.2-665.8,219.2-665.8z"/>
	<path id="Path_10" class="st0" d="M211.8-657.7c0.4,0,0.9,0,1.3,0c0.5,0,0.8-0.4,0.9-0.8c0-0.3,0-0.7,0-1c0-0.5-0.4-0.8-0.9-0.9
		c-0.2,0-0.4,0-0.6,0s-0.5,0-0.7,0c-0.5,0-0.9,0.4-0.9,0.9c0,0.3,0,0.6,0,1C210.9-658.1,211.3-657.7,211.8-657.7z"/>
	<path id="Path_11" class="st0" d="M213-663.1c0.5,0.1,1-0.3,1-0.8c0-0.1,0-0.1,0-0.2c0-0.2,0-0.4,0-0.6c0.1-0.5-0.3-1-0.8-1.1
		c-0.1,0-0.2,0-0.3,0c-0.9,0-1.8,0-2.7,0c-1.4,0-2.9,0-4.3,0c-0.5-0.1-1,0.3-1.1,0.8c0,0.1,0,0.2,0,0.3c0,0.2,0,0.4,0,0.6
		c-0.1,0.5,0.3,1,0.8,1.1c0.1,0,0.2,0,0.3,0c1.2,0,2.3,0,3.5,0C210.6-663.1,211.8-663.1,213-663.1z"/>
	<path id="Path_12" class="st1" d="M223.5-661.9c0.2,0,0.3,0,0.5,0c0-4.6,0-9.3,0-13.9c0-1-0.4-2-1.2-2.6c-0.5-0.4-1.2-0.6-1.9-0.6
		c-1.9,0-3.8,0-5.8,0c-3.8,0-7.6,0-11.4,0c-1.5,0-2.8,1.1-3.1,2.6c0,0.2,0,0.4,0,0.7c0,8.3,0,16.6,0,24.9c-0.1,1.5,1,2.9,2.5,3.2
		c0,0,0.1,0,0.1,0h10.2c-0.2-0.6-0.3-1.2-0.5-1.8c0-0.3-0.1-0.5-0.1-0.8c0-0.1,0-0.2,0-0.3l0-0.1v-1.3l0-0.2l0-0.1c0,0,0,0,0,0
		s0,0,0-0.1c-0.4,0-0.8,0-1.1,0c-0.5,0-0.9-0.4-0.9-0.9c0-0.3,0-0.6,0-0.9c0-0.5,0.4-0.9,0.9-0.9c0.2,0,0.4,0,0.7,0l0,0
		c0.2,0,0.4,0,0.7,0c0.1,0,0.2,0,0.3,0.1c0.7-1.9,1.9-3.6,3.5-4.8c0.1-0.4,0.4-0.7,0.8-0.7h0.2C219.7-661.4,221.6-661.9,223.5-661.9
		 M220-664c0,0.5-0.4,0.9-0.9,0.9c-0.2,0-0.4,0-0.7,0l0,0c-0.2,0-0.4,0-0.6,0c-0.5,0-0.9-0.4-0.9-0.9c0,0,0,0,0,0c0-0.3,0-0.6,0-0.9
		c0-0.5,0.4-0.9,0.9-0.9c0,0,0,0,0,0c0.4,0,0.9,0,1.3,0c0.5,0,0.9,0.4,0.9,0.9c0,0,0,0,0,0C220.1-664.6,220.1-664.3,220-664L220-664
		z M204.8-673.7c0-0.5,0.3-1,0.9-1c0.1,0,0.1,0,0.2,0c4.3,0,8.7,0,13,0c0.5-0.1,1,0.3,1,0.8c0,0.1,0,0.1,0,0.2c0,0.5,0,1,0,1.6
		c0.1,0.5-0.3,1-0.8,1.1c-0.1,0-0.2,0-0.2,0c-2.2,0-4.3,0-6.5,0H206c-0.8,0-1.2-0.3-1.2-1.2C204.8-672.8,204.8-673.2,204.8-673.7
		L204.8-673.7z M207.9-653.1c0,0.5-0.4,0.9-0.9,0.9c-0.4,0-0.9,0-1.3,0c-0.5,0-0.9-0.4-0.9-0.8c0-0.3,0-0.7,0-1
		c0-0.5,0.4-0.9,0.9-0.9c0,0,0,0,0,0c0.2,0,0.4,0,0.6,0l0,0c0.2,0,0.4,0,0.6,0c0.5,0,0.9,0.4,0.9,0.9
		C208-653.8,208-653.4,207.9-653.1L207.9-653.1z M207.9-658.6c0,0.5-0.4,0.9-0.9,0.9c-0.2,0-0.4,0-0.6,0c-0.2,0-0.4,0-0.6,0
		c-0.5,0-0.9-0.4-0.9-0.8c0-0.3,0-0.7,0-1c0-0.5,0.4-0.8,0.9-0.8c0.4,0,0.8,0,1.3,0c0.5,0,0.9,0.4,0.9,0.9
		C208-659.2,208-658.9,207.9-658.6L207.9-658.6z M205.9-663.1c-0.5,0.1-1-0.3-1.1-0.8c0-0.1,0-0.2,0-0.3c0-0.2,0-0.4,0-0.6
		c-0.1-0.5,0.3-1,0.8-1.1c0.1,0,0.2,0,0.3,0c1.4,0,2.9,0,4.3,0c0.9,0,1.8,0,2.7,0c0.5-0.1,1,0.3,1.1,0.8c0,0.1,0,0.2,0,0.3
		c0,0.2,0,0.4,0,0.6c0.1,0.5-0.3,1-0.8,1c-0.1,0-0.1,0-0.2,0c-1.2,0-2.4,0-3.6,0C208.3-663.1,207.1-663.1,205.9-663.1L205.9-663.1z
		 M210.9-659.5c0-0.5,0.4-0.9,0.9-0.9c0.2,0,0.4,0,0.7,0s0.4,0,0.6,0c0.5,0,0.9,0.4,0.9,0.9c0,0.3,0,0.7,0,1c0,0.5-0.4,0.8-0.9,0.8
		c-0.4,0-0.9,0-1.3,0c-0.5,0-0.9-0.4-0.9-0.9C210.9-658.9,210.9-659.2,210.9-659.5L210.9-659.5z"/>
	<path id="Path_13" class="st1" d="M226.5-659.9c-0.8-0.3-1.6-0.4-2.5-0.5c-0.2,0-0.3,0-0.5,0c-1.2,0-2.4,0.2-3.5,0.7
		c-1,0.4-1.9,1-2.8,1.8c-1.2,1.2-2.1,2.6-2.6,4.3c-0.2,0.6-0.2,1.2-0.3,1.7c0,0.1,0,0.1,0,0.2v1.1c0,0.3,0.1,0.7,0.1,1
		c0.1,0.7,0.3,1.4,0.6,2c0.6,1.4,1.5,2.6,2.7,3.6c1.4,1.1,3.1,1.8,4.9,2c0.1,0,0.2,0,0.4,0h1.1c0.3,0,0.7-0.1,1-0.1
		c3.5-0.6,6.4-3.2,7.3-6.6C233.7-653.5,231.1-658.3,226.5-659.9z M224.5-649.7h1.3c0.4,0,0.8,0.3,0.8,0.7c0,0,0,0,0,0
		c0,0.4-0.3,0.8-0.7,0.8c0,0,0,0,0,0h-1.5c0,0.3,0,0.5,0,0.8c0,0.4-0.3,0.8-0.7,0.8c0,0,0,0,0,0h0c-0.4,0-0.8-0.4-0.7-0.8
		c0,0,0,0,0,0c0-0.2,0-0.5,0-0.8h-1.1h-0.5c-0.4,0-0.8-0.3-0.8-0.7c0,0,0,0,0,0c0-0.4,0.3-0.8,0.8-0.8c0,0,0,0,0,0h0.5h1v-0.8h-0.9
		h-0.6c-0.3,0-0.6-0.2-0.7-0.4c-0.2-0.4,0-0.8,0.3-1c0.1,0,0.2-0.1,0.3-0.1c0.1,0,0.2,0,0.4,0c0.2,0,0.4,0,0.6,0
		c0-0.1-0.1-0.1-0.1-0.2c-0.5-0.8-1-1.6-1.5-2.5c-0.2-0.3-0.1-0.8,0.2-1c0.1-0.1,0.2-0.1,0.3-0.1c0,0,0.1,0,0.1,0
		c0.3,0,0.5,0.2,0.7,0.4c0.5,0.8,1,1.6,1.5,2.5c0,0.1,0.1,0.1,0.1,0.2c0-0.1,0.1-0.1,0.1-0.2l0.4-0.6c0.4-0.6,0.8-1.3,1.1-1.9
		c0.1-0.2,0.4-0.4,0.7-0.4c0,0,0.1,0,0.1,0c0.4,0.1,0.7,0.4,0.7,0.8c0,0.1-0.1,0.2-0.1,0.3c-0.5,0.8-1,1.7-1.5,2.5
		c0,0.1-0.1,0.1-0.1,0.2h0.9c0.4,0,0.8,0.3,0.8,0.7c0,0,0,0,0,0.1c0,0.4-0.3,0.8-0.8,0.7c0,0,0,0,0,0h-1.4c0,0,0,0,0,0v0.8
		L224.5-649.7z"/>
</g>
</svg>
