<?xml version="1.0" encoding="utf-8"?>
<!-- Generator: Adobe Illustrator 22.1.0, SVG Export Plug-In . SVG Version: 6.00 Build 0)  -->
<svg version="1.1" id="Layer_1" xmlns="http://www.w3.org/2000/svg" xmlns:xlink="http://www.w3.org/1999/xlink" x="0px" y="0px"
	 viewBox="0 0 55.8 63.5" style="enable-background:new 0 0 55.8 63.5;" xml:space="preserve">
<style type="text/css">
	.st0{fill:none;}
	.st1{fill:#707070;}
	.st2{fill:#FFFFFF;}
	.st3{fill:#162566;}
</style>
<g id="Group_29" transform="translate(-197.689 682.058)">
	<g id="Path_4" transform="translate(-47.566 -49.37)">
		<path class="st0" d="M256.5-617.3h9.9c3.4,0,6.7,0,10.1,0c0.8,0.1,1.6-0.5,1.7-1.3c0-0.1,0-0.2,0-0.4c0-0.8,0-1.6,0-2.4
			c0.1-0.8-0.5-1.5-1.3-1.6c-0.1,0-0.2,0-0.3,0c-6.7,0-13.4,0-20.1,0c-0.8-0.1-1.5,0.5-1.6,1.3c0,0.1,0,0.2,0,0.3c0,0.8,0,1.5,0,2.3
			C254.7-617.8,255.2-617.3,256.5-617.3z"/>
		<path class="st1" d="M272-617.3c1.5,0,2.9,0,4.4,0c1.1,0,1.7-0.6,1.7-1.6c0-0.8,0-1.6,0-2.4c0-1.1-0.6-1.6-1.6-1.6
			c-6.7,0-13.4,0-20.1,0c-1,0-1.6,0.6-1.6,1.6c0,0.8,0,1.5,0,2.3c0,1.3,0.5,1.8,1.8,1.8c3.3,0,6.6,0,9.9,0
			C268.3-617.3,270.2-617.3,272-617.3 M272-616.3c-1.9,0-3.8,0-5.7,0l-5.9,0c-1.3,0-2.6,0-3.9,0c-0.9,0-1.6-0.2-2.1-0.7
			c-0.5-0.5-0.7-1.2-0.7-2.1c0-0.2,0-0.4,0-0.6c0-0.5,0-1.1,0-1.7c0-1.6,1.1-2.6,2.6-2.6c6.7,0,13.4,0,20.2,0c1.6,0,2.6,1,2.6,2.6
			c0,0.8,0,1.6,0,2.5c0,1.6-1,2.6-2.7,2.6C275-616.3,273.5-616.3,272-616.3z"/>
	</g>
	<g id="Path_5" transform="translate(-47.536 -276.807)">
		<path class="st0" d="M258-364.8c-0.3,0-0.6,0-1,0l0,0c-0.3,0-0.6,0-1,0c-0.8,0-1.4,0.5-1.5,1.3c0,0,0,0,0,0c0,0.5,0,1,0,1.6
			c0,0.7,0.7,1.3,1.4,1.3c0.7,0,1.3,0,2,0c0.8,0,1.4-0.6,1.4-1.4c0-0.5,0-1,0-1.5C259.5-364.2,258.8-364.8,258-364.8z"/>
		<path class="st1" d="M256.5-364.8c-0.1,0-0.2,0-0.4,0c-0.8,0-1.4,0.5-1.5,1.3c0,0.5,0,1,0,1.6c0.1,0.8,0.6,1.3,1.4,1.3
			c0.7,0,1.3,0,2,0c0.8,0,1.3-0.6,1.4-1.4c0-0.5,0-1,0-1.5c-0.1-0.8-0.6-1.3-1.4-1.4c-0.3,0-0.6,0-1,0v0
			C256.9-364.8,256.7-364.8,256.5-364.8 M256.5-365.8c0.2,0,0.4,0,0.6,0h0.3c0.1,0,0.2,0,0.3,0c0.1,0,0.2,0,0.2,0h0.2v0
			c1.3,0.1,2.3,1,2.4,2.3c0,0.5,0,1.1,0,1.6c-0.1,1.3-1.1,2.2-2.4,2.3c-0.3,0-0.7,0-1,0c-0.3,0-0.7,0-1,0c-1.3,0-2.2-0.9-2.4-2.2
			c-0.1-0.6-0.1-1.2,0-1.7c0.1-0.7,0.3-1.2,0.8-1.6c0.4-0.4,1-0.6,1.7-0.6C256.2-365.8,256.4-365.8,256.5-365.8z"/>
	</g>
	<g id="Path_6" transform="translate(-47.547 -214.166)">
		<path class="st0" d="M258.1-435.9c-0.7,0-1.3,0-2,0c-0.7,0-1.4,0.5-1.4,1.3c-0.1,0.5-0.1,1.1,0,1.6c0,0.8,0.7,1.3,1.4,1.3
			c0.3,0,0.6,0,0.9,0c0.3,0,0.7,0,1,0c0.8,0,1.4-0.6,1.4-1.4c0-0.5,0-1,0-1.5C259.5-435.3,258.8-435.9,258.1-435.9z"/>
		<path class="st1" d="M257.1-435.9c-0.3,0-0.7,0-1,0c-0.8,0-1.3,0.5-1.4,1.3c-0.1,0.5-0.1,1.1,0,1.6c0.1,0.8,0.6,1.3,1.4,1.3
			c0.3,0,0.6,0,0.9,0c0.3,0,0.7,0,1,0c0.8,0,1.4-0.6,1.4-1.4c0-0.5,0-1,0-1.5c0-0.8-0.6-1.3-1.4-1.4
			C257.7-435.9,257.4-435.9,257.1-435.9 M257.1-436.9c0.3,0,0.7,0,1,0c0.6,0,1.2,0.3,1.7,0.7c0.4,0.4,0.7,1,0.7,1.6
			c0,0.5,0,1.1,0,1.6c-0.1,1.3-1.1,2.2-2.4,2.3c-0.1,0-0.2,0-0.4,0c-0.2,0-0.4,0-0.6,0c-0.2,0-0.4,0-0.6,0c-0.1,0-0.3,0-0.4,0
			c-1.3,0-2.3-0.9-2.4-2.2c-0.1-0.6-0.1-1.2,0-1.8c0.1-1.3,1.1-2.2,2.4-2.2C256.4-436.9,256.8-436.9,257.1-436.9z"/>
	</g>
	<g id="Path_7" transform="translate(-117.107 -276.822)">
		<path class="st0" d="M337.2-363.4c0.1-0.4,0.3-0.9,0.4-1.3c-0.2-0.1-0.3-0.1-0.5-0.1c-0.3,0-0.7,0-1,0l0,0c-0.3,0-0.7,0-1,0
			c-0.8,0-1.4,0.6-1.4,1.4c0,0.5,0,1,0,1.4c0,0.8,0.6,1.4,1.4,1.4c0.6,0,1.2,0,1.7,0c0-0.2,0.1-0.4,0.1-0.7
			C336.9-362,337.1-362.7,337.2-363.4z"/>
		<path class="st1" d="M335.4-364.8c-0.1,0-0.3,0-0.4,0c-0.8,0-1.3,0.6-1.4,1.4c0,0.5,0,1,0,1.4c0,0.8,0.6,1.4,1.4,1.4
			c0.6,0,1.2,0,1.7,0c0-0.2,0.1-0.4,0.1-0.7c0.1-0.7,0.2-1.4,0.4-2.1c0.1-0.4,0.3-0.9,0.4-1.3c-0.2-0.1-0.3-0.1-0.5-0.1
			c-0.3,0-0.7,0-1,0v0C335.9-364.8,335.6-364.8,335.4-364.8 M335.4-365.8c0.1,0,0.2,0,0.3,0c0.1,0,0.2,0,0.3,0h0.3c0,0,0,0,0,0
			c0.1,0,0.2,0,0.3,0c0.1,0,0.2,0,0.3,0l0.1,0c0,0,0.1,0,0.1,0c0.3,0,0.6,0.1,0.9,0.2l0.8,0.4l-0.3,0.9c-0.1,0.4-0.3,0.8-0.4,1.2
			c-0.2,0.7-0.3,1.3-0.4,2c0,0.3-0.1,0.5-0.1,0.7l-0.1,0.8l-0.8,0c-0.6,0-1.2,0-1.8,0c-1.3-0.1-2.3-1-2.3-2.4c0-0.5,0-1,0-1.5
			c0.1-1.3,1-2.3,2.3-2.3C335.1-365.8,335.2-365.8,335.4-365.8z"/>
	</g>
	<g id="Path_8" transform="translate(-187.065 -214.226)">
		<path class="st0" d="M414.7-435.9l-0.3,0c-0.6,0-1.2,0.5-1.3,1.1c0.1,0,0.1-0.1,0.2-0.1C413.7-435.2,414.2-435.6,414.7-435.9z"/>
		<path class="st1" d="M414.7-435.9c-0.1,0-0.2,0-0.3,0c-0.7,0-1.2,0.5-1.3,1.1c0.1,0,0.1-0.1,0.2-0.1
			C413.7-435.2,414.2-435.6,414.7-435.9 M418.4-437l-3.2,2c-0.5,0.3-0.9,0.6-1.4,0.9c0,0,0,0-0.1,0.1c0,0-0.1,0-0.1,0.1l-2.1,1.7
			l0.5-2.7c0.2-1.1,1.1-1.9,2.3-1.9c0.1,0,0.1,0,0.2,0l0.1,0L418.4-437z"/>
	</g>
	<g id="Path_9" transform="translate(-186.689 -151.49)">
		<path class="st0" d="M416.1-507.1c-0.7,0-1.4,0-2,0c-0.8,0-1.4,0.6-1.4,1.4c0,0,0,0,0,0c0,0.5,0,0.9,0,1.4c0,0.8,0.6,1.4,1.4,1.4
			c0,0,0,0,0,0c0.3,0,0.7,0,1,0l0,0c0.3,0,0.7,0,1,0c0.8,0,1.4-0.6,1.3-1.4c0-0.5,0-0.9,0-1.4C417.4-506.4,416.8-507,416.1-507.1
			C416.1-507.1,416.1-507.1,416.1-507.1z"/>
		<path class="st1" d="M415-507.1c-0.3,0-0.7,0-1,0c-0.8,0-1.3,0.6-1.4,1.4c0,0.5,0,0.9,0,1.4c0,0.8,0.6,1.3,1.4,1.4
			c0.3,0,0.7,0,1,0v0c0.3,0,0.7,0,1,0c0.8,0,1.3-0.6,1.3-1.4c0-0.5,0-0.9,0-1.4c0-0.8-0.6-1.4-1.4-1.4
			C415.7-507.1,415.4-507.1,415-507.1 M415-508.1c0.4,0,0.7,0,1.1,0c1.3,0.1,2.3,1.1,2.3,2.4c0,0.5,0,1,0,1.4c0,1.3-1,2.3-2.3,2.4
			c-0.1,0-0.3,0-0.5,0c-0.1,0-0.2,0-0.3,0c0,0,0,0,0,0l-0.3,0c-0.1,0-0.2,0-0.3,0c-0.1,0-0.2,0-0.3,0c-0.2,0-0.3,0-0.4,0
			c-1.3-0.1-2.3-1-2.3-2.3c0-0.5,0-1,0-1.5c0-1.3,1-2.3,2.3-2.4C414.3-508.1,414.7-508.1,415-508.1z"/>
	</g>
	<g id="Path_10" transform="translate(-117.098 -214.202)">
		<path class="st0" d="M335-431.7c0.7,0,1.4,0,2.1,0c0.7,0,1.3-0.6,1.3-1.3c0-0.5,0-1,0-1.6c0-0.7-0.6-1.3-1.4-1.3c-0.3,0-0.7,0-1,0
			c-0.3,0-0.7,0-1,0c-0.8,0-1.4,0.6-1.4,1.4c0,0.5,0,1,0,1.5C333.7-432.3,334.3-431.7,335-431.7z"/>
		<path class="st1" d="M336-431.7c0.3,0,0.7,0,1,0c0.7,0,1.3-0.6,1.3-1.3c0-0.5,0-1,0-1.6c0-0.8-0.6-1.3-1.4-1.3c-0.3,0-0.7,0-1,0
			c-0.3,0-0.7,0-1,0c-0.8,0-1.3,0.6-1.4,1.4c0,0.5,0,1,0,1.5c0,0.7,0.6,1.3,1.4,1.3C335.3-431.7,335.7-431.7,336-431.7 M336-430.7
			c-0.4,0-0.7,0-1.1,0c-1.3,0-2.3-1-2.3-2.3c0-0.5,0-1,0-1.6c0.1-1.3,1-2.3,2.3-2.3c0.1,0,0.3,0,0.4,0c0.1,0,0.2,0,0.3,0
			c0.2,0,0.4,0,0.6,0c0.1,0,0.2,0,0.3,0c0.2,0,0.3,0,0.4,0c1.3,0.1,2.2,1,2.3,2.3c0,0.6,0,1.1,0,1.7c-0.1,1.3-1,2.2-2.3,2.2
			C336.8-430.7,336.4-430.7,336-430.7z"/>
	</g>
	<g id="Path_11" transform="translate(-47.584 -151.58)">
		<path class="st0" d="M267.4-502.8c0.8,0.1,1.5-0.5,1.6-1.3c0-0.1,0-0.2,0-0.3c0-0.3,0-0.6,0-1c0.1-0.8-0.4-1.6-1.2-1.7
			c-0.2,0-0.3,0-0.5,0c-1.4,0-2.8,0-4.2,0c-2.2,0-4.4,0-6.7,0c-0.8-0.1-1.6,0.5-1.7,1.3c0,0.1,0,0.3,0,0.4c0,0.3,0,0.6,0,0.9
			c-0.1,0.8,0.4,1.6,1.2,1.7c0.2,0,0.3,0,0.5,0c1.8,0,3.6,0,5.4,0C263.7-502.8,265.5-502.8,267.4-502.8z"/>
		<path class="st1" d="M265.1-502.8c0.8,0,1.5,0,2.3,0c1,0,1.5-0.5,1.6-1.6c0-0.3,0-0.6,0-1c0-1.2-0.5-1.7-1.7-1.7
			c-1.4,0-2.8,0-4.2,0c-2.2,0-4.4,0-6.7,0c-1.1,0-1.7,0.6-1.7,1.7c0,0.3,0,0.6,0,0.9c0,1.2,0.5,1.7,1.7,1.7c1.8,0,3.6,0,5.4,0
			C262.9-502.8,264-502.8,265.1-502.8 M265.1-501.8c-1.1,0-2.2,0-3.2,0l-1.4,0c-1.3,0-2.7,0-4,0c-1.7,0-2.7-1-2.7-2.7
			c0-0.3,0-0.6,0-0.9c0-1.7,1-2.7,2.7-2.7c1.6,0,3.1,0,4.7,0c1.1,0,2.1,0,3.2,0c1,0,1.9,0,2.9,0c1.7,0,2.7,1,2.7,2.7l0,0
			c0,0.3,0,0.6,0,0.9c0,1.6-1,2.5-2.6,2.5C266.7-501.8,266-501.8,265.1-501.8z"/>
	</g>
	<g id="Path_12" transform="translate(0 0)">
		<path class="st2" d="M222.6-628.8h-2.1h-15.8h-0.5l-0.2-0.2c-1.4-0.3-2.6-1.1-3.5-2.2c-0.9-1.2-1.4-2.6-1.4-4.1
			c0-9.2,0-18.7,0-27.8c0-3.7,0-7.3,0-11l0-0.1c0-0.4,0-0.8,0.1-1.2c0.3-1.5,1-2.8,2.1-3.8c1.1-0.9,2.5-1.5,4.1-1.5
			c2.2,0,4.6,0,7.6,0c1.7,0,3.4,0,5.1,0c1.7,0,3.4,0,5.1,0l2.3,0l2.3,0c1.4,0,2.9,0,4.3,0c1.4,0,2.7,0.4,3.8,1.3
			c1.6,1.3,2.4,3,2.4,5.2c0,7.6,0,15.2,0,21.6l0,1.6l-1.6-0.1c-0.2,0-0.5,0-0.7,0c-2.7,0-5.4,0.8-7.8,2.2l-0.3,0.2l-0.4,0l-0.1,0
			c0,0-0.1,0-0.1,0l-0.1,0.4l-0.4,0.3c-2.3,1.8-4,4.1-5,6.8l-0.6,1.5l-1.5-0.7c-0.1,0-0.2,0-0.3,0c-0.1,0-0.2,0-0.3,0
			c-0.1,0-0.2,0-0.3,0H218c0,0.4,0,0.8,0,1.2c0.3,0,0.6,0,0.9,0c0.2,0,0.5,0,0.7,0l1.8-0.1l-0.3,1.8l0,0c0,0,0,0.1,0,0.1l0,0l0,0
			c0,0,0,0.1,0,0.1l0,0l0,0l0,0.1l0,0.1v0.1v1.7v0.1l0,0.1c0,0.2,0,0.3,0.1,0.5l0,0c0,0.4,0.1,0.8,0.2,1.1c0.1,0.9,0.4,1.7,0.6,2.5
			L222.6-628.8z M208.6-638.9c0.3,0,0.6,0,0.9,0c0.3,0,0.6,0,0.9,0c0-0.4,0-0.8,0-1.2c-0.1,0-0.2,0-0.3,0c-0.1,0-0.2,0-0.3,0
			c-0.1,0-0.2,0-0.3,0h-0.9C208.6-639.7,208.6-639.3,208.6-638.9z M218-647.4c0.3,0,0.6,0,0.9,0c0.3,0,0.6,0,0.9,0
			c0-0.4,0-0.8,0-1.2c-0.1,0-0.1,0-0.2,0c-0.1,0-0.2,0-0.3,0c-0.1,0-0.2,0-0.3,0c-0.1,0-0.2,0-0.3,0c-0.1,0-0.2,0-0.3,0
			c-0.1,0-0.2,0-0.3,0C218-648.2,218-647.8,218-647.4z M208.6-647.4c0.1,0,0.2,0,0.3,0c0.1,0,0.2,0,0.3,0c0.1,0,0.2,0,0.3,0
			c0.1,0,0.2,0,0.3,0c0.1,0,0.2,0,0.3,0c0.1,0,0.2,0,0.3,0c0-0.4,0-0.8,0-1.2c-0.3,0-0.6,0-0.9,0c-0.3,0-0.6,0-0.9,0
			C208.6-648.2,208.6-647.8,208.6-647.4z M214.3-655.8L214.3-655.8L214.3-655.8c0.5,0,1.1,0,1.6,0c0.5,0,1.1,0,1.6,0
			c0.9,0,1.6,0,2.3,0c0,0,0.1,0,0.1,0c0,0,0-0.1,0-0.1c0-0.3,0-0.6,0-0.9l0,0c0-0.1,0-0.2,0-0.2c0,0-0.1,0-0.2,0c-0.5,0-1.1,0-1.6,0
			c-0.4,0-0.9,0-1.3,0c-0.4,0-0.9,0-1.3,0c-0.7,0-1.3,0-2,0c-0.7,0-1.3,0-2,0c-0.9,0-1.8,0-2.7,0c-0.1,0-0.1,0-0.2,0
			c0,0,0,0.1,0,0.2c0,0.2,0,0.5,0,0.8c0,0.1,0,0.1,0,0.2c0,0,0.1,0,0.2,0c0.7,0,1.4,0,2.2,0c0.6,0,1.3,0,1.9,0L214.3-655.8z
			 M228.3-655.9c0.1,0,0.2,0,0.4,0c0.1,0,0.2,0,0.3,0c0.1,0,0.2,0,0.2,0c0-0.4,0-0.8,0-1.2c-0.3,0-0.6,0-0.9,0c-0.3,0-0.6,0-0.9,0
			c0,0.4,0,0.8,0,1.2L228.3-655.9z M218.8-668.2L218.8-668.2c0.9,0,1.9,0,2.8,0c0.9,0,1.9,0,2.8,0c1.5,0,3,0,4.4,0
			c0.1,0,0.1,0,0.2,0c0,0,0-0.1,0-0.1c0-0.8,0-1.6,0-2.4c0-0.1,0-0.1,0-0.1c0,0-0.1,0-0.1,0c-3.3,0-6.7,0-10,0c-3.4,0-6.8,0-10.2,0
			c0,0-0.1,0-0.1,0c0,0,0,0.1,0,0.1c0,0.5,0,1.1,0,1.6c0,0.2,0,0.4,0,0.6c0,0.1,0,0.2,0,0.3c0.1,0,0.2,0,0.3,0c1.3,0,2.6,0,3.9,0
			l3.5,0L218.8-668.2z"/>
		<path class="st3" d="M220.5-630.3c-0.3-0.9-0.5-1.8-0.7-2.7c-0.1-0.4-0.1-0.8-0.2-1.2c0-0.2,0-0.3-0.1-0.5l0-0.2v-2.1l0-0.2
			c0,0,0-0.1,0-0.1c0,0,0-0.1,0-0.1c0,0,0-0.1,0-0.1c-0.6,0-1.2,0-1.7,0c-0.8,0-1.3-0.6-1.4-1.4c0-0.5,0-1,0-1.4
			c0-0.8,0.6-1.3,1.4-1.4c0.3,0,0.7,0,1,0v0c0.3,0,0.7,0,1,0c0.2,0,0.4,0.1,0.5,0.1c1.1-3,2.9-5.5,5.4-7.5c0.1-0.6,0.6-1.1,1.3-1.1
			c0.1,0,0.2,0,0.3,0c2.6-1.6,5.6-2.4,8.6-2.4c0.3,0,0.5,0,0.8,0c0-7.2,0-14.4,0-21.6c0-1.6-0.6-3-1.8-4c-0.9-0.7-1.8-1-2.9-1
			c-3,0-6,0-9,0c-5.9,0-11.8,0-17.7,0c-2.4,0-4.3,1.6-4.7,4c-0.1,0.3-0.1,0.7-0.1,1c0,12.9,0,25.8,0,38.7c0,2.4,1.5,4.5,3.9,5
			c0,0,0.1,0,0.1,0.1H220.5 M209-641.6c0.2,0,0.4,0,0.6,0v0c0.3,0,0.6,0,1,0c0.8,0,1.4,0.6,1.4,1.4c0,0.5,0,1,0,1.5
			c-0.1,0.8-0.6,1.3-1.4,1.4c-0.7,0-1.3,0-2,0c-0.8,0-1.3-0.5-1.4-1.3c0-0.5-0.1-1,0-1.6c0.1-0.8,0.6-1.3,1.5-1.3
			C208.7-641.6,208.8-641.6,209-641.6 M218.3-650.1c0.2,0,0.4,0,0.7,0c0.3,0,0.7,0,1,0c0.8,0,1.3,0.6,1.4,1.3c0,0.5,0,1,0,1.6
			c0,0.7-0.6,1.3-1.3,1.3c-0.7,0-1.4,0-2.1,0c-0.7,0-1.3-0.6-1.4-1.3c0-0.5,0-1,0-1.5c0-0.8,0.6-1.3,1.4-1.4
			C218-650.1,218.2-650.1,218.3-650.1 M209.5-650.1c0.3,0,0.6,0,1,0c0.8,0,1.4,0.6,1.4,1.4c0,0.5,0,1,0,1.5
			c-0.1,0.8-0.6,1.3-1.4,1.4c-0.3,0-0.7,0-1,0c-0.3,0-0.6,0-0.9,0c-0.8,0-1.4-0.5-1.4-1.3c0-0.5,0-1.1,0-1.6
			c0.1-0.8,0.6-1.3,1.4-1.3C208.9-650.1,209.2-650.1,209.5-650.1 M214.3-654.3c-1.8,0-3.6,0-5.4,0c-1.2,0-1.7-0.5-1.7-1.7
			c0-0.3,0-0.6,0-0.9c0-1.1,0.6-1.7,1.7-1.7c2.2,0,4.4,0,6.7,0c1.4,0,2.8,0,4.2,0c1.1,0,1.7,0.5,1.7,1.7c0,0.3,0,0.6,0,1
			c0,1-0.6,1.6-1.6,1.6C217.9-654.3,216.1-654.3,214.3-654.3 M228.3-658.6c0.3,0,0.7,0,1,0c0.8,0,1.4,0.6,1.4,1.4c0,0.5,0,0.9,0,1.4
			c0,0.8-0.6,1.3-1.3,1.4c-0.3,0-0.7,0-1,0v0c-0.3,0-0.7,0-1,0c-0.8,0-1.4-0.6-1.4-1.4c0-0.5,0-0.9,0-1.4c0-0.8,0.6-1.4,1.4-1.4
			C227.7-658.6,228-658.6,228.3-658.6 M218.8-666.7c-3.3,0-6.6,0-9.9,0c-1.3,0-1.8-0.5-1.8-1.8c0-0.8,0-1.5,0-2.3
			c0-1,0.6-1.6,1.6-1.6c6.7,0,13.4,0,20.1,0c1,0,1.6,0.6,1.6,1.6c0,0.8,0,1.6,0,2.4c0,1.1-0.6,1.6-1.7,1.6
			C225.5-666.7,222.2-666.7,218.8-666.7 M224.7-627.3h-20.9l-0.4-0.3c-1.6-0.4-3-1.4-4-2.7c-1.1-1.4-1.7-3.2-1.7-5
			c0-9.2,0-18.7,0-27.7c0-3.7,0-7.3,0-11l0-0.1c0-0.4,0-0.9,0.1-1.5c0.7-3.8,3.8-6.5,7.7-6.5c2.2,0,4.6,0,7.6,0c3.4,0,6.8,0,10.1,0
			l4.6,0c1.4,0,2.9,0,4.3,0c1.8,0,3.4,0.6,4.8,1.6c2,1.5,3,3.7,3,6.3c0,7.6,0,15.2,0,21.6l0,3.1l-3.1-0.2c-0.2,0-0.4,0-0.6,0
			c-2.5,0-4.9,0.7-7,2l-0.7,0.4l-0.6,0.5c-2,1.6-3.6,3.7-4.5,6.1l-0.4,1l-0.4,2.6c0,0,0,0.1,0,0.1l0,0c0,0.1,0,0.1,0,0.2l0,0v1.6
			c0,0.1,0,0.3,0.1,0.4l0,0c0,0.4,0.1,0.7,0.1,1.1c0.1,0.8,0.3,1.5,0.6,2.3L224.7-627.3z"/>
	</g>
	<g id="Path_13" transform="translate(-157.018 -214.144)">
		<path class="st2" d="M394.1-405.9H394h-1.7h-0.1l-0.1,0c-0.1,0-0.1,0-0.2,0c-0.1,0-0.2,0-0.4,0c-3.2-0.3-6-1.5-8.4-3.4
			c-2.1-1.7-3.6-3.8-4.6-6.1c-0.5-1.1-0.8-2.2-1-3.5c-0.1-0.4-0.1-0.8-0.2-1.2c0-0.2,0-0.3-0.1-0.5l0-0.1v-0.1v-1.7v-0.1l0-0.1
			c0,0,0-0.1,0-0.1c0,0,0-0.1,0-0.1c0-0.3,0.1-0.5,0.1-0.8c0.1-0.6,0.2-1.3,0.4-2c0.8-2.8,2.3-5.4,4.4-7.3c1.4-1.3,3-2.3,4.7-3.1
			c1.9-0.8,4-1.2,6-1.2c0.3,0,0.5,0,0.9,0c1.4,0.1,2.9,0.4,4.3,0.8c3.8,1.3,7,4,8.9,7.5c1.9,3.5,2.3,7.6,1.3,11.6
			c-0.8,2.9-2.4,5.5-4.6,7.5c-2.2,2-5,3.4-7.9,3.9c-0.4,0.1-0.8,0.1-1.2,0.2C394.6-406,394.4-405.9,394.1-405.9L394.1-405.9z"/>
		<path class="st3" d="M393.2-436c-1.9,0-3.8,0.4-5.5,1.1c-1.6,0.7-3,1.6-4.3,2.8c-1.9,1.7-3.3,4-4,6.6c-0.2,0.9-0.3,1.8-0.5,2.7
			c0,0.1,0,0.2,0,0.2v1.7c0.1,0.5,0.1,1.1,0.2,1.6c0.2,1.1,0.5,2.2,0.9,3.1c0.9,2.1,2.3,4,4.2,5.5c2.2,1.8,4.8,2.8,7.6,3.1
			c0.2,0,0.4,0,0.5,0.1h1.7c0.5-0.1,1.1-0.1,1.6-0.2c5.4-0.9,9.9-5,11.3-10.3c2-7.3-2-14.8-9.2-17.3c-1.3-0.4-2.6-0.7-3.9-0.8
			C393.7-435.9,393.4-436,393.2-436 M393.2-424c0.1-0.1,0.1-0.2,0.2-0.3c0.2-0.3,0.4-0.6,0.6-1c0.6-1,1.2-2,1.8-2.9
			c0.3-0.4,0.6-0.7,1-0.7c0.1,0,0.1,0,0.2,0c0.9,0.1,1.3,1,0.8,1.8c-0.8,1.3-1.5,2.6-2.3,3.8c-0.1,0.1-0.1,0.2-0.2,0.3
			c0.5,0,0.9,0,1.4,0c0.7,0,1.3,0.5,1.3,1.2c0,0.7-0.5,1.2-1.3,1.2c-0.7,0-1.5,0-2.2,0c0,0,0,0-0.1,0v1.2h0.3c0.7,0,1.4,0,2.1,0
			c0.7,0,1.2,0.5,1.2,1.2c0,0.7-0.5,1.2-1.2,1.2c-0.8,0-1.5,0-2.4,0c0,0.4,0,0.8,0,1.2c0,0.7-0.5,1.2-1.2,1.2c0,0,0,0,0,0
			c-0.7,0-1.1-0.5-1.2-1.2c0-0.4,0-0.8,0-1.2h-0.5c-0.6,0-1.2,0-1.9,0c-0.7,0-1.2-0.5-1.2-1.2c0-0.7,0.5-1.2,1.2-1.2
			c0.7,0,1.4,0,2.1,0h0.3v-1.2c-0.8,0-1.6,0-2.4,0c-0.5,0-0.8-0.2-1.1-0.6c-0.4-0.8,0.1-1.7,1-1.7c0.5,0,1,0,1.5,0
			c-0.1-0.1-0.1-0.2-0.2-0.3c-0.8-1.3-1.5-2.6-2.3-3.8c-0.5-0.8,0-1.7,0.8-1.8c0.5-0.1,0.9,0.2,1.2,0.6c0.8,1.3,1.5,2.6,2.3,3.8
			C393.1-424.2,393.1-424.1,393.2-424 M393.2-439L393.2-439c0.3,0,0.6,0,1,0c1.6,0.1,3.1,0.4,4.7,0.9c4.2,1.4,7.6,4.4,9.7,8.2
			c2,3.9,2.5,8.4,1.4,12.6c-0.8,3.2-2.6,6-5,8.2c-2.5,2.2-5.5,3.7-8.7,4.2c-0.4,0.1-0.8,0.1-1.2,0.2c-0.2,0-0.3,0-0.5,0.1l-0.2,0h-2
			l-0.2,0c-0.1,0-0.1,0-0.2,0c-0.1,0-0.2,0-0.3,0c-3.5-0.4-6.6-1.6-9.2-3.8c-2.3-1.9-4-4.1-5-6.7c-0.5-1.2-0.9-2.5-1.1-3.8
			c-0.1-0.4-0.1-0.8-0.2-1.2c0-0.2,0-0.3-0.1-0.5l0-0.2v-2.2l0.1-0.3c0,0,0-0.1,0-0.1c0,0,0,0,0-0.1c0-0.2,0.1-0.5,0.1-0.8
			c0.1-0.7,0.2-1.4,0.4-2.2c0.8-3.1,2.5-5.9,4.8-8c1.5-1.4,3.3-2.6,5.2-3.4C388.7-438.5,390.9-439,393.2-439z"/>
	</g>
</g>
</svg>
