<?xml version="1.0" encoding="iso-8859-1"?>
<!-- Generator: Adobe Illustrator 21.0.0, SVG Export Plug-In . SVG Version: 6.00 Build 0)  -->
<svg version="1.1" id="_x3C_Layer_x3E_" xmlns="http://www.w3.org/2000/svg" xmlns:xlink="http://www.w3.org/1999/xlink" x="0px"
	 y="0px" viewBox="0 0 223.772 103.804" fill="#fff" style="enable-background:new 0 0 223.772 103.804;" xml:space="preserve">
<path fill="#fff" d="M109.813,0.867c0.484-0.556,0.851-0.816,1.19-0.86c0.636-0.084,1.173,0.592,2.206,1.498l109.256,95.596
	c1.591,1.393,1.751,3.809,0.362,5.396c-0.758,0.866-1.815,1.307-2.879,1.307c-0.896,0-1.792-0.31-2.517-0.945L111.194,9.905
	L6.238,102.214c-0.724,0.639-1.624,0.952-2.524,0.952c-1.061,0-2.114-0.441-2.872-1.3c-1.393-1.583-1.24-3.999,1.847-6.646
	L109.484,1.174L109.813,0.867z"/>
</svg>
