<?xml version="1.0" encoding="utf-8"?>
<!-- Generator: Adobe Illustrator 22.1.0, SVG Export Plug-In . SVG Version: 6.00 Build 0)  -->
<svg version="1.1" id="Layer_1" xmlns="http://www.w3.org/2000/svg" xmlns:xlink="http://www.w3.org/1999/xlink" x="0px" y="0px"
	 viewBox="0 0 30 30.2" style="enable-background:new 0 0 30 30.2;" xml:space="preserve">
<style type="text/css">
	.st0{fill:#FFFFFF;}
</style>
<g>
	<path class="st0" d="M29.3,25.5l-6.6-5.7c1.5-2,2.3-4.6,2.3-7.3C25,5.6,19.4,0,12.5,0C5.6,0,0,5.6,0,12.5S5.6,25,12.5,25
		c2.5,0,4.9-0.8,6.9-2l4.9,5.9c1.4,1.5,3.9,1.8,5,0.7C30.1,28.7,30.4,26.7,29.3,25.5z M5.1,12.5c0-4.1,3.3-7.5,7.5-7.5
		c4.1,0,7.5,3.3,7.5,7.5c0,4.1-3.3,7.5-7.5,7.5C8.4,20,5.1,16.6,5.1,12.5z"/>
</g>
</svg>
