<?xml version="1.0" encoding="utf-8"?>
<!-- Generator: Adobe Illustrator 19.0.0, SVG Export Plug-In . SVG Version: 6.00 Build 0)  -->
<svg version="1.1" id="Layer_1" xmlns="http://www.w3.org/2000/svg" xmlns:xlink="http://www.w3.org/1999/xlink" width="311" height="311" x="0px" y="0px"
	 viewBox="0 0 311 311" style="enable-background:new 0 0 311 311.1;" xml:space="preserve">
<style type="text/css">
	.st0{fill:#FFFFFF;}
</style>
<g id="XMLID_1_">
	<path id="XMLID_30_" class="st0" d="M243.4,311.1c11.5,0.2,24.9-2.2,37.6-8.2c9.2-4.4,18.4-9.1,23.1-18.8
		c5.5-11.4,7.4-23.7,6.7-36.3c-0.2-3.9-1.7-6.8-6.1-7.8c-4.2-1-8.2-2.7-12.2-4.4c-21.8-9-43.5-18-65.2-27.2c-5-2.1-9.2-1.9-13.4,1.7
		c-6.7,5.9-13.8,11.5-20.3,17.7c-10.8,10.1-10.8,10.5-23.3,1.9c-27.7-19-53.5-40.2-73.3-67.7c-7.1-9.8-13.7-20-20.3-30.1
		c-2.1-3.2-1.6-6.1,1.4-9.2c8-8.5,15.4-17.4,23.1-26.2c3.1-3.6,3.9-7.4,1.8-11.9c-2.5-5.6-4.5-11.4-6.8-17.1
		C87.7,46.3,79.2,25.2,70.3,4.2c-0.8-2-4.1-4-6.4-4.1c-6.6-0.2-13.3-0.1-19.8,1C31.1,3.2,20,8.5,12.9,20.8C1,41.5-2.1,63.5,1.3,86.7
		c3.4,22.6,12.3,43.3,23.7,63c15.7,27.3,35.6,51.2,57.7,73.5c28.6,29,59.4,54.7,96.4,72.4C198.6,304.9,219,311.2,243.4,311.1z"/>
	<path id="XMLID_29_" d="M243.4,311.1c-24.4,0.1-44.7-6.2-64.2-15.5c-37-17.7-67.8-43.4-96.4-72.4c-22.1-22.4-42-46.3-57.7-73.5
		C13.7,130,4.7,109.3,1.3,86.7C-2.1,63.5,1,41.5,12.9,20.8C20,8.5,31.1,3.2,44.1,1.1C50.6,0,57.4-0.1,64,0.1
		c2.2,0.1,5.5,2.1,6.4,4.1c8.9,20.9,17.4,42,25.9,63.1c2.3,5.7,4.3,11.5,6.8,17.1c2,4.5,1.3,8.4-1.8,11.9
		c-7.6,8.8-15.1,17.7-23.1,26.2c-3,3.2-3.5,6-1.4,9.2c6.6,10.1,13.2,20.3,20.3,30.1c19.8,27.5,45.6,48.7,73.3,67.7
		c12.5,8.6,12.5,8.2,23.3-1.9c6.5-6.1,13.6-11.7,20.3-17.7c4.1-3.6,8.4-3.8,13.4-1.7c21.7,9.2,43.4,18.2,65.2,27.2
		c4,1.6,8,3.4,12.2,4.4c4.4,1.1,5.9,3.9,6.1,7.8c0.7,12.6-1.2,24.9-6.7,36.3c-4.7,9.8-13.9,14.5-23.1,18.8
		C268.3,308.9,254.8,311.3,243.4,311.1z"/>
</g>
</svg>
