<?xml version="1.0" encoding="utf-8"?>
<!-- Generator: Adobe Illustrator 19.0.0, SVG Export Plug-In . SVG Version: 6.00 Build 0)  -->
<svg version="1.1" id="Layer_1" xmlns="http://www.w3.org/2000/svg" xmlns:xlink="http://www.w3.org/1999/xlink" x="0px" y="0px"
	 viewBox="-484 290.9 311 311.1" height="311" width="311" style="enable-background:new -484 290.9 311 311.1;" xml:space="preserve">
<style type="text/css">
	.st0{fill:#FFFFFF;}
</style>
<g id="XMLID_1_">
	<path id="XMLID_30_" class="st0" d="M-240.6,602c11.5,0.2,24.9-2.2,37.6-8.2c9.2-4.4,18.4-9.1,23.1-18.8
		c5.5-11.4,7.4-23.7,6.7-36.3c-0.2-3.9-1.7-6.8-6.1-7.8c-4.2-1-8.2-2.7-12.2-4.4c-21.8-9-43.5-18-65.2-27.2c-5-2.1-9.2-1.9-13.4,1.7
		c-6.7,5.9-13.8,11.5-20.3,17.7c-10.8,10.1-10.8,10.5-23.3,1.9c-27.7-19-53.5-40.2-73.3-67.7c-7.1-9.8-13.7-20-20.3-30.1
		c-2.1-3.2-1.6-6.1,1.4-9.2c8-8.5,15.4-17.4,23.1-26.2c3.1-3.6,3.9-7.4,1.8-11.9c-2.5-5.6-4.5-11.4-6.8-17.1
		c-8.5-21.2-17-42.3-25.9-63.3c-0.8-2-4.1-4-6.4-4.1c-6.6-0.2-13.3-0.1-19.8,1c-13,2.1-24.1,7.4-31.2,19.7
		c-11.9,20.7-15,42.7-11.6,65.9c3.4,22.6,12.3,43.3,23.7,63c15.7,27.3,35.6,51.2,57.7,73.5c28.6,29,59.4,54.7,96.4,72.4
		C-285.4,595.8-265,602.1-240.6,602z"/>
	<path id="XMLID_29_" class="st0" d="M-240.6,602c-24.4,0.1-44.7-6.2-64.2-15.5c-37-17.7-67.8-43.4-96.4-72.4
		c-22.1-22.4-42-46.3-57.7-73.5c-11.4-19.7-20.4-40.4-23.8-63c-3.4-23.2-0.3-45.2,11.6-65.9c7.1-12.3,18.2-17.6,31.2-19.7
		c6.5-1.1,13.3-1.2,19.9-1c2.2,0.1,5.5,2.1,6.4,4.1c8.9,20.9,17.4,42,25.9,63.1c2.3,5.7,4.3,11.5,6.8,17.1c2,4.5,1.3,8.4-1.8,11.9
		c-7.6,8.8-15.1,17.7-23.1,26.2c-3,3.2-3.5,6-1.4,9.2c6.6,10.1,13.2,20.3,20.3,30.1c19.8,27.5,45.6,48.7,73.3,67.7
		c12.5,8.6,12.5,8.2,23.3-1.9c6.5-6.1,13.6-11.7,20.3-17.7c4.1-3.6,8.4-3.8,13.4-1.7c21.7,9.2,43.4,18.2,65.2,27.2
		c4,1.6,8,3.4,12.2,4.4c4.4,1.1,5.9,3.9,6.1,7.8c0.7,12.6-1.2,24.9-6.7,36.3c-4.7,9.8-13.9,14.5-23.1,18.8
		C-215.7,599.8-229.2,602.2-240.6,602z"/>
</g>
</svg>
