<?xml version="1.0" encoding="utf-8"?>
<!-- Generator: Adobe Illustrator 19.0.0, SVG Export Plug-In . SVG Version: 6.00 Build 0)  -->
<svg version="1.1" id="Layer_1" xmlns="http://www.w3.org/2000/svg" xmlns:xlink="http://www.w3.org/1999/xlink" x="0px" y="0px"
	 viewBox="0 0 218.9 211" style="enable-background:new 0 0 218.9 211;" xml:space="preserve" width="219" height="211">
<style type="text/css">
	.st0{fill:#FFFFFF;}
	.st1{fill:none;}
</style>
<path class="st0" d="M21,65.5h29.6c6.3,0,11.3-5.1,11.3-11.3c0-4.5,3.7-8.2,8.2-8.2h78.2c4.5,0,8.2,3.7,8.2,8.2
	c0,6.3,5.1,11.3,11.3,11.3h29.6c6.3,0,11.3-5.1,11.3-11.3V32.1c0-17.7-14.4-32.1-32.1-32.1h-135C24,0,9.7,14.4,9.7,32.1v22.1
	C9.7,60.5,14.7,65.5,21,65.5L21,65.5z M21,65.5"/>
<path class="st0" d="M217.6,180.8l-14.4-50.7c-6.6-23.1-26.6-39.5-50.1-41.9V74.8c0-8.5-6.9-15.4-15.4-15.4
	c-8.5,0-15.5,6.9-15.5,15.4v13H96.3v-13c0-8.5-6.9-15.4-15.4-15.4c-8.5,0-15.4,6.9-15.4,15.4v13.4c-23.5,2.4-43.6,18.8-50.2,41.9
	L0.9,180.8c-2,7-0.6,14.4,3.8,20.2c4.4,5.8,11.2,9.2,18.4,9.2h172.3c7.2,0,14.1-3.4,18.4-9.2C218.2,195.2,219.6,187.7,217.6,180.8
	L217.6,180.8z M103.5,181.1c0,2.2-1.8,4-4,4H79c-2.2,0-4-1.8-4-4v-20.5c0-2.2,1.8-4,4-4h20.5c2.2,0,4,1.8,4,4V181.1z M103.5,141
	c0,2.2-1.8,4-4,4H79c-2.2,0-4-1.8-4-4v-20.5c0-2.2,1.8-4,4-4h20.5c2.2,0,4,1.8,4,4V141z M143.5,181.1c0,2.2-1.8,4-4,4h-20.5
	c-2.2,0-4-1.8-4-4v-20.4c0-2.2,1.8-4,4-4h20.5c2.2,0,4,1.8,4,4V181.1z M143.5,141c0,2.2-1.8,4-4,4h-20.4c-2.2,0-4-1.8-4-4v-20.4
	c0-2.2,1.8-4,4-4h20.4c2.2,0,4,1.8,4,4V141z M143.5,141"/>
<rect x="0" y="0" class="st1" width="218.9" height="211"/>
</svg>
