<?xml version="1.0" encoding="utf-8"?>
<!-- Generator: Adobe Illustrator 19.0.0, SVG Export Plug-In . SVG Version: 6.00 Build 0)  -->
<svg version="1.1" id="Layer_1" xmlns="http://www.w3.org/2000/svg" xmlns:xlink="http://www.w3.org/1999/xlink" x="0px" y="0px"
	 viewBox="0 0 130.2 93" style="enable-background:new 0 0 130.2 93;" xml:space="preserve">
<style type="text/css">
	.st0{fill:#FFFFFF;}
</style>
<g>
	<path class="st0" d="M65.1,65.1L49,51L3,90.5C4.6,92,6.9,93,9.4,93h111.5c2.5,0,4.7-1,6.4-2.5L81.2,51L65.1,65.1z M65.1,65.1"/>
	<path class="st0" d="M127.2,2.5C125.6,1,123.3,0,120.8,0H9.4C6.9,0,4.6,1,3,2.5l62.2,53.3L127.2,2.5z M127.2,2.5"/>
	<path class="st0" d="M0,8.2v77.2l45-38.2L0,8.2z M0,8.2"/>
	<path class="st0" d="M85.2,47.2l45,38.2V8.1L85.2,47.2z M85.2,47.2"/>
</g>
</svg>
